<svg width="44" height="40" viewBox="0 0 44 40" fill="none" xmlns="http://www.w3.org/2000/svg">
<path d="M22 36H26V9.99997L38.788 15.48C39.148 15.6343 39.4548 15.8909 39.6702 16.218C39.8857 16.5451 40.0003 16.9283 40 17.32V36H44V40H0V36H4V9.29997C3.99995 8.913 4.11216 8.53433 4.32303 8.20987C4.5339 7.8854 4.83436 7.62908 5.188 7.47197L20.594 0.62397C20.7464 0.556258 20.9133 0.52774 21.0796 0.541014C21.2458 0.554288 21.4061 0.608932 21.5459 0.699971C21.6856 0.79101 21.8004 0.915553 21.8797 1.06226C21.959 1.20897 22.0004 1.37319 22 1.53997V36Z" fill="#3E62AC"/>
</svg>
