<svg width="36" height="42" viewBox="0 0 36 42" fill="none" xmlns="http://www.w3.org/2000/svg">
<path d="M6.76401 9.936C9.95149 7.38213 13.9156 5.99349 18 6C22.25 6 26.156 7.472 29.236 9.936L32.142 7.03L34.97 9.858L32.064 12.764C34.1794 15.4123 35.5041 18.6041 35.8856 21.972C36.2671 25.3399 35.69 28.7471 34.2206 31.8015C32.7512 34.8559 30.4492 37.4333 27.5796 39.2372C24.7101 41.041 21.3895 41.998 18 41.998C14.6106 41.998 11.29 41.041 8.42039 39.2372C5.55081 37.4333 3.24887 34.8559 1.77945 31.8015C0.310042 28.7471 -0.267116 25.3399 0.114401 21.972C0.495917 18.6041 1.8206 15.4123 3.93601 12.764L1.03001 9.86L3.85801 7.032L6.76401 9.938V9.936ZM18 38C19.8385 38 21.659 37.6379 23.3576 36.9343C25.0561 36.2307 26.5995 35.1995 27.8995 33.8995C29.1995 32.5995 30.2308 31.0561 30.9343 29.3576C31.6379 27.659 32 25.8385 32 24C32 22.1615 31.6379 20.341 30.9343 18.6424C30.2308 16.9439 29.1995 15.4005 27.8995 14.1005C26.5995 12.8005 25.0561 11.7693 23.3576 11.0657C21.659 10.3621 19.8385 10 18 10C14.287 10 10.726 11.475 8.10052 14.1005C5.47501 16.726 4.00001 20.287 4.00001 24C4.00001 27.713 5.47501 31.274 8.10052 33.8995C10.726 36.525 14.287 38 18 38ZM20 22H26L16 35V26H10L20 12.99V22ZM10 0H26V4H10V0Z" fill="#3E62AC"/>
</svg>
