<svg width="20" height="20" viewBox="0 0 20 20" fill="none" xmlns="http://www.w3.org/2000/svg">
<path d="M10 0C15.52 0 20 4.48 20 10C20 15.52 15.52 20 10 20C4.48 20 0 15.52 0 10C0 4.48 4.48 0 10 0ZM10 2C5.585 2 2 5.585 2 10C2 14.415 5.585 18 10 18C14.415 18 18 14.415 18 10C18 5.585 14.415 2 10 2ZM10 4C12.761 4 15 6.686 15 10C15 13.314 12.761 16 10 16C7.239 16 5 13.314 5 10C5 6.686 7.239 4 10 4ZM12.325 7.472L8.763 13.645C9.14 13.873 9.559 14 10 14C11.657 14 13 12.21 13 10C13 9.041 12.747 8.161 12.325 7.472ZM10 6C8.343 6 7 7.79 7 10C7 10.959 7.253 11.839 7.675 12.528L11.237 6.355C10.8652 6.12517 10.4371 6.00234 10 6Z" fill="#3E62AC"/>
</svg>
