<svg width="39" height="47" viewBox="0 0 39 47" fill="none" xmlns="http://www.w3.org/2000/svg">
<path d="M19.5 0.125L36.9611 4.00525C37.9322 4.222 38.625 5.08262 38.625 6.07925V27.3016C38.625 31.5644 36.4936 35.5466 32.947 37.9096L19.5 46.875L6.053 37.9096C2.50425 35.5445 0.375 31.5644 0.375 27.3037V6.07925C0.375 5.08262 1.06775 4.222 2.03887 4.00525L19.5 0.125ZM19.5 4.47913L4.625 7.7835V27.3016C4.625 30.1427 6.0445 32.7969 8.40963 34.3736L19.5 41.7686L30.5904 34.3736C32.9555 32.7969 34.375 30.1449 34.375 27.3037V7.7835L19.5 4.48125V4.47913ZM28.9605 15.4718L31.9674 18.4765L18.4439 32L9.4275 22.9836L12.4322 19.9789L18.4417 25.9884L28.9605 15.4696V15.4718Z" fill="#3E62AC"/>
</svg>
