<svg width="13" height="16" viewBox="0 0 13 16" fill="none" xmlns="http://www.w3.org/2000/svg">
<path d="M6.5 13.8039L10.0063 10.2977C10.6996 9.60424 11.1718 8.72075 11.3631 7.75894C11.5544 6.79713 11.4562 5.8002 11.0809 4.89422C10.7056 3.98823 10.07 3.21387 9.25465 2.66907C8.43927 2.12426 7.48065 1.83347 6.5 1.83347C5.51936 1.83347 4.56074 2.12426 3.74535 2.66907C2.92997 3.21387 2.29445 3.98823 1.91915 4.89422C1.54385 5.8002 1.44563 6.79713 1.63691 7.75894C1.82818 8.72075 2.30037 9.60424 2.99375 10.2977L6.5 13.8039ZM6.5 15.8071L1.99217 11.2993C1.10062 10.4077 0.493465 9.2718 0.247491 8.03518C0.00151655 6.79855 0.127767 5.51675 0.610278 4.35188C1.09279 3.187 1.90989 2.19137 2.95825 1.49088C4.00661 0.790389 5.23915 0.416504 6.5 0.416504C7.76085 0.416504 8.99339 0.790389 10.0418 1.49088C11.0901 2.19137 11.9072 3.187 12.3897 4.35188C12.8722 5.51675 12.9985 6.79855 12.7525 8.03518C12.5065 9.2718 11.8994 10.4077 11.0078 11.2993L6.5 15.8071ZM6.5 8.20812C6.87573 8.20812 7.23606 8.05886 7.50174 7.79318C7.76741 7.52751 7.91667 7.16717 7.91667 6.79145C7.91667 6.41572 7.76741 6.05539 7.50174 5.78971C7.23606 5.52404 6.87573 5.37478 6.5 5.37478C6.12428 5.37478 5.76394 5.52404 5.49827 5.78971C5.23259 6.05539 5.08334 6.41572 5.08334 6.79145C5.08334 7.16717 5.23259 7.52751 5.49827 7.79318C5.76394 8.05886 6.12428 8.20812 6.5 8.20812ZM6.5 9.62478C5.74856 9.62478 5.02789 9.32627 4.49653 8.79492C3.96518 8.26356 3.66667 7.54289 3.66667 6.79145C3.66667 6.04 3.96518 5.31933 4.49653 4.78798C5.02789 4.25663 5.74856 3.95812 6.5 3.95812C7.25145 3.95812 7.97212 4.25663 8.50347 4.78798C9.03482 5.31933 9.33333 6.04 9.33333 6.79145C9.33333 7.54289 9.03482 8.26356 8.50347 8.79492C7.97212 9.32627 7.25145 9.62478 6.5 9.62478Z" fill="#3E62AC"/>
</svg>
