<svg width="41" height="41" viewBox="0 0 41 41" fill="none" xmlns="http://www.w3.org/2000/svg">
<path d="M32.062 29.234L40.628 37.798L37.798 40.628L29.234 32.062C26.0475 34.6164 22.084 36.0058 18 36C8.064 36 0 27.936 0 18C0 8.064 8.064 0 18 0C27.936 0 36 8.064 36 18C36.0058 22.084 34.6164 26.0475 32.062 29.234ZM28.05 27.75C30.5882 25.1398 32.0057 21.6409 32 18C32 10.264 25.734 4 18 4C10.264 4 4 10.264 4 18C4 25.734 10.264 32 18 32C21.6409 32.0057 25.1398 30.5882 27.75 28.05L28.05 27.75ZM20.356 10.352C19.7663 10.6184 19.25 11.0239 18.8514 11.5337C18.4528 12.0435 18.1839 12.6424 18.0677 13.279C17.9515 13.9156 17.9915 14.5709 18.1842 15.1887C18.3769 15.8064 18.7166 16.3682 19.1742 16.8258C19.6318 17.2834 20.1936 17.6231 20.8113 17.8158C21.4291 18.0085 22.0844 18.0485 22.721 17.9323C23.3576 17.8161 23.9565 17.5472 24.4663 17.1486C24.9761 16.75 25.3816 16.2337 25.648 15.644C26.1736 17.3512 26.1127 19.1853 25.475 20.8539C24.8372 22.5225 23.6594 23.9297 22.1291 24.8512C20.5988 25.7727 18.8042 26.1555 17.031 25.9387C15.2579 25.7219 13.6084 24.9178 12.3453 23.6547C11.0822 22.3916 10.2781 20.7421 10.0613 18.969C9.84445 17.1958 10.2273 15.4012 11.1488 13.8709C12.0703 12.3406 13.4775 11.1628 15.1461 10.525C16.8147 9.88732 18.6488 9.8264 20.356 10.352Z" fill="#3E62AC"/>
</svg>
