<svg width="32" height="43" viewBox="0 0 32 43" fill="none" xmlns="http://www.w3.org/2000/svg">
<path d="M16 11C20.2435 11 24.3131 12.6858 27.3137 15.6863C30.3143 18.6869 32 22.7566 32 27C32 31.2435 30.3143 35.3132 27.3137 38.3138C24.3131 41.3143 20.2435 43 16 43C11.7565 43 7.68687 41.3143 4.68629 38.3138C1.68571 35.3132 0 31.2435 0 27C0 22.7566 1.68571 18.6869 4.68629 15.6863C7.68687 12.6858 11.7565 11 16 11ZM16 15C12.8174 15 9.76516 16.2643 7.51472 18.5148C5.26428 20.7652 4 23.8174 4 27C4 30.1826 5.26428 33.2349 7.51472 35.4853C9.76516 37.7358 12.8174 39 16 39C19.1826 39 22.2348 37.7358 24.4853 35.4853C26.7357 33.2349 28 30.1826 28 27C28 23.8174 26.7357 20.7652 24.4853 18.5148C22.2348 16.2643 19.1826 15 16 15ZM16 18L18.646 23.36L24.56 24.22L20.28 28.39L21.29 34.282L16 31.5L10.71 34.28L11.72 28.39L7.44 24.218L13.354 23.358L16 18ZM28 1.00005V7.00005L25.274 9.27605C23.0119 8.08921 20.5421 7.34971 18 7.09805V1.00005H28ZM14 0.998047V7.09805C11.4587 7.34934 8.98965 8.08815 6.728 9.27405L4 7.00005V1.00005L14 0.998047Z" fill="#3E62AC"/>
</svg>
