<svg width="100" height="80" viewBox="0 0 100 80" fill="none" xmlns="http://www.w3.org/2000/svg">
<path d="M97.715 12.49C100 21.4 100 40 100 40C100 40 100 58.6 97.715 67.51C96.445 72.435 92.73 76.31 88.025 77.62C79.48 80 50 80 50 80C50 80 20.535 80 11.975 77.62C7.25 76.29 3.54 72.42 2.285 67.51C1.49012e-07 58.6 0 40 0 40C0 40 1.49012e-07 21.4 2.285 12.49C3.555 7.565 7.27 3.69 11.975 2.38C20.535 -8.9407e-07 50 0 50 0C50 0 79.48 -8.9407e-07 88.025 2.38C92.75 3.71 96.46 7.58 97.715 12.49ZM40 57.5L70 40L40 22.5V57.5Z" fill="#3E62AC"/>
</svg>
