<svg width="28" height="22" viewBox="0 0 28 22" fill="none" xmlns="http://www.w3.org/2000/svg">
<path d="M26.7243 3.66392C27.3337 6.03992 27.3337 10.9999 27.3337 10.9999C27.3337 10.9999 27.3337 15.9599 26.7243 18.3359C26.3857 19.6493 25.395 20.6826 24.1403 21.0319C21.8617 21.6666 14.0003 21.6666 14.0003 21.6666C14.0003 21.6666 6.14299 21.6666 3.86033 21.0319C2.60033 20.6773 1.61099 19.6453 1.27633 18.3359C0.666992 15.9599 0.666992 10.9999 0.666992 10.9999C0.666992 10.9999 0.666992 6.03992 1.27633 3.66392C1.61499 2.35059 2.60566 1.31725 3.86033 0.967918C6.14299 0.333252 14.0003 0.333252 14.0003 0.333252C14.0003 0.333252 21.8617 0.333252 24.1403 0.967918C25.4003 1.32258 26.3897 2.35459 26.7243 3.66392ZM11.3337 15.6666L19.3337 10.9999L11.3337 6.33325V15.6666Z" fill="#FB0000"/>
</svg>
