<svg width="66" height="74" viewBox="0 0 66 74" fill="none" xmlns="http://www.w3.org/2000/svg">
<path d="M66 22.3333V69.9743C66.0034 70.4558 65.9119 70.9333 65.7307 71.3795C65.5496 71.8256 65.2823 72.2317 64.9442 72.5746C64.6061 72.9174 64.2038 73.1904 63.7602 73.3777C63.3167 73.5651 62.8405 73.6633 62.359 73.6666H3.641C2.67598 73.6666 1.75043 73.2835 1.06772 72.6015C0.385005 71.9195 0.000971821 70.9943 0 70.0293V3.97065C0 2.00165 1.64633 0.333313 3.674 0.333313H43.989L66 22.3333ZM58.6667 26H40.3333V7.66665H7.33333V66.3333H58.6667V26ZM18.3333 18.6666H29.3333V26H18.3333V18.6666ZM18.3333 33.3333H47.6667V40.6666H18.3333V33.3333ZM18.3333 48H47.6667V55.3333H18.3333V48Z" fill="#A6B7D9"/>
</svg>
