<svg width="75" height="75" viewBox="0 0 75 75" fill="none" xmlns="http://www.w3.org/2000/svg">
<path d="M59.1138 53.929L74.8182 69.6296L69.6298 74.818L53.9292 59.1136C48.0872 63.7968 40.8208 66.344 33.3335 66.3333C15.1175 66.3333 0.333496 51.5493 0.333496 33.3333C0.333496 15.1173 15.1175 0.333313 33.3335 0.333313C51.5495 0.333313 66.3335 15.1173 66.3335 33.3333C66.3441 40.8207 63.797 48.087 59.1138 53.929ZM51.7585 51.2083C56.4119 46.4229 59.0107 40.0082 59.0002 33.3333C59.0002 19.1506 47.5125 7.66665 33.3335 7.66665C19.1508 7.66665 7.66683 19.1506 7.66683 33.3333C7.66683 47.5123 19.1508 59 33.3335 59C40.0084 59.0105 46.4231 56.4117 51.2085 51.7583L51.7585 51.2083ZM37.6528 19.312C36.5716 19.8004 35.6251 20.5438 34.8944 21.4784C34.1637 22.4131 33.6706 23.5111 33.4576 24.6782C33.2445 25.8453 33.3178 27.0467 33.6712 28.1792C34.0245 29.3117 34.6474 30.3417 35.4863 31.1806C36.3252 32.0195 37.3551 32.6423 38.4876 32.9956C39.6202 33.349 40.8215 33.4223 41.9886 33.2092C43.1557 32.9962 44.2537 32.5031 45.1884 31.7724C46.123 31.0417 46.8664 30.0952 47.3548 29.014C48.3184 32.1439 48.2067 35.5063 47.0376 38.5655C45.8684 41.6246 43.709 44.2044 40.9035 45.8938C38.098 47.5833 34.8078 48.2851 31.5571 47.8876C28.3064 47.4901 25.2822 46.016 22.9665 43.7003C20.6508 41.3846 19.1767 38.3604 18.7792 35.1097C18.3817 31.859 19.0835 28.5688 20.773 25.7633C22.4624 22.9578 25.0422 20.7984 28.1013 19.6292C31.1605 18.4601 34.5229 18.3484 37.6528 19.312Z" fill="#A6B7D9"/>
</svg>
