<svg width="120" height="120" viewBox="0 0 120 120" fill="none" xmlns="http://www.w3.org/2000/svg">
<path d="M27.5 12H27V12.5V107.5V108H27.5H92.5H93V107.5V12.5V12H92.5H27.5ZM95 112H25C23.9011 112 23 111.099 23 110V10C23 8.90114 23.9011 8 25 8H95C96.0989 8 97 8.90114 97 10V110C97 111.099 96.0989 112 95 112Z" fill="black" stroke="#F3F8FC"/>
<path d="M87.1675 65.1766L87 65.3258V65.55V100C87 101.099 86.0989 102 85 102H35C33.9011 102 33 101.099 33 100V20C33 18.9011 33.9011 18 35 18H85C86.0989 18 87 18.9011 87 20V54.45V54.6742L87.1675 54.8234C88.6618 56.1543 89.5 58.0188 89.5 60C89.5 61.9812 88.6618 63.8457 87.1675 65.1766ZM62.5 22H62V22.5V37.5V38H62.5H82.5H83V37.5V22.5V22H82.5H62.5ZM57.5 98H58V97.5V82.5V82H57.5H37.5H37V82.5V97.5V98H37.5H57.5ZM57.5 78H58V77.5V42.5V42H57.5H37.5H37V42.5V77.5V78H37.5H57.5ZM57.5 38H58V37.5V22.5V22H57.5H37.5H37V22.5V37.5V38H37.5H57.5ZM82.5 98H83V97.5V82.5V82H82.5H62.5H62V82.5V97.5V98H62.5H82.5ZM82.5 78H83V77.5V67.5V67H82.5C78.6511 67 75.5 63.8489 75.5 60C75.5 56.1511 78.6511 53 82.5 53H83V52.5V42.5V42H82.5H62.5H62V42.5V77.5V78H62.5H82.5ZM79.5 60C79.5 61.6511 80.8489 63 82.5 63C84.1511 63 85.5 61.6511 85.5 60C85.5 58.3489 84.1511 57 82.5 57C80.8489 57 79.5 58.3489 79.5 60Z" fill="black" stroke="#F3F8FC"/>
</svg>
