<svg width="120" height="120" viewBox="0 0 120 120" fill="none" xmlns="http://www.w3.org/2000/svg">
<path d="M48.7886 12.857C49.2125 12.857 49.6268 12.7313 49.9791 12.4959C50.3315 12.2604 50.6062 11.9257 50.7684 11.5342C50.9306 11.1426 50.973 10.7118 50.8903 10.2961C50.8076 9.88042 50.6036 9.4986 50.3039 9.19892C50.0042 8.89923 49.6224 8.69515 49.2067 8.61246C48.791 8.52978 48.3602 8.57222 47.9686 8.73441C47.5771 8.89659 47.2424 9.17125 47.0069 9.52364C46.7715 9.87603 46.6458 10.2903 46.6458 10.7141C46.6464 11.2823 46.8724 11.8269 47.2741 12.2287C47.6759 12.6304 48.2205 12.8564 48.7886 12.857ZM48.7886 9.64272C49.0005 9.64272 49.2077 9.70556 49.3839 9.82329C49.5601 9.94102 49.6974 10.1084 49.7785 10.3041C49.8596 10.4999 49.8808 10.7153 49.8395 10.9232C49.7981 11.131 49.6961 11.3219 49.5463 11.4718C49.3964 11.6216 49.2055 11.7236 48.9977 11.765C48.7898 11.8063 48.5744 11.7851 48.3786 11.704C48.1828 11.6229 48.0155 11.4856 47.8978 11.3094C47.78 11.1332 47.7172 10.9261 47.7172 10.7141C47.7175 10.4301 47.8305 10.1577 48.0313 9.95684C48.2322 9.75597 48.5046 9.643 48.7886 9.64272ZM113.074 56.4284C112.792 56.4284 112.516 56.5122 112.281 56.6692C112.046 56.8262 111.863 57.0493 111.755 57.3103C111.646 57.5714 111.618 57.8586 111.673 58.1357C111.728 58.4128 111.864 58.6674 112.064 58.8672C112.264 59.0669 112.519 59.203 112.796 59.2581C113.073 59.3132 113.36 59.285 113.621 59.1768C113.882 59.0687 114.105 58.8856 114.262 58.6507C114.419 58.4157 114.503 58.1395 114.503 57.857C114.502 57.4783 114.352 57.1151 114.084 56.8473C113.816 56.5795 113.453 56.4289 113.074 56.4284ZM113.074 58.5713C112.933 58.5713 112.795 58.5294 112.678 58.4509C112.56 58.3724 112.469 58.2609 112.414 58.1303C112.36 57.9998 112.346 57.8562 112.374 57.7177C112.401 57.5791 112.469 57.4518 112.569 57.3519C112.669 57.252 112.796 57.184 112.935 57.1564C113.074 57.1289 113.217 57.143 113.348 57.1971C113.478 57.2512 113.59 57.3427 113.668 57.4602C113.747 57.5776 113.789 57.7157 113.789 57.857C113.788 58.0464 113.713 58.228 113.579 58.3619C113.445 58.4958 113.264 58.5711 113.074 58.5713ZM70.2172 35.7141C69.9347 35.7141 69.6585 35.7979 69.4235 35.9549C69.1886 36.1119 69.0055 36.335 68.8974 36.596C68.7893 36.8571 68.761 37.1443 68.8161 37.4214C68.8712 37.6985 69.0073 37.9531 69.2071 38.1529C69.4068 38.3527 69.6614 38.4887 69.9385 38.5438C70.2156 38.599 70.5029 38.5707 70.7639 38.4625C71.0249 38.3544 71.2481 38.1713 71.405 37.9364C71.562 37.7015 71.6458 37.4253 71.6458 37.1427C71.6454 36.764 71.4947 36.4009 71.2269 36.133C70.9591 35.8652 70.596 35.7146 70.2172 35.7141ZM70.2172 37.857C70.0759 37.857 69.9378 37.8151 69.8204 37.7366C69.7029 37.6581 69.6114 37.5466 69.5573 37.4161C69.5032 37.2855 69.4891 37.1419 69.5166 37.0034C69.5442 36.8648 69.6122 36.7375 69.7121 36.6376C69.812 36.5377 69.9393 36.4697 70.0779 36.4422C70.2164 36.4146 70.36 36.4287 70.4906 36.4828C70.6211 36.5369 70.7326 36.6284 70.8111 36.7459C70.8896 36.8633 70.9315 37.0014 70.9315 37.1427C70.9313 37.3321 70.856 37.5137 70.7221 37.6476C70.5882 37.7815 70.4066 37.8568 70.2172 37.857ZM113.074 14.2856C112.792 14.2856 112.516 14.3694 112.281 14.5263C112.046 14.6833 111.863 14.9064 111.755 15.1675C111.646 15.4285 111.618 15.7157 111.673 15.9928C111.728 16.27 111.864 16.5245 112.064 16.7243C112.264 16.9241 112.519 17.0601 112.796 17.1153C113.073 17.1704 113.36 17.1421 113.621 17.034C113.882 16.9259 114.105 16.7427 114.262 16.5078C114.419 16.2729 114.503 15.9967 114.503 15.7141C114.502 15.3354 114.352 14.9723 114.084 14.7045C113.816 14.4367 113.453 14.286 113.074 14.2856ZM113.074 16.4284C112.933 16.4284 112.795 16.3865 112.678 16.3081C112.56 16.2296 112.469 16.118 112.414 15.9875C112.36 15.857 112.346 15.7134 112.374 15.5748C112.401 15.4362 112.469 15.309 112.569 15.2091C112.669 15.1092 112.796 15.0411 112.935 15.0136C113.074 14.986 113.217 15.0002 113.348 15.0542C113.478 15.1083 113.59 15.1998 113.668 15.3173C113.747 15.4348 113.789 15.5729 113.789 15.7141C113.788 15.9035 113.713 16.0851 113.579 16.219C113.445 16.3529 113.264 16.4282 113.074 16.4284ZM12.3601 27.1427C12.3601 26.8602 12.2763 26.584 12.1193 26.349C11.9623 26.1141 11.7392 25.931 11.4782 25.8229C11.2172 25.7148 10.9299 25.6865 10.6528 25.7416C10.3757 25.7967 10.1211 25.9328 9.92135 26.1326C9.72156 26.3324 9.5855 26.5869 9.53038 26.864C9.47526 27.1411 9.50355 27.4284 9.61167 27.6894C9.7198 27.9504 9.9029 28.1736 10.1378 28.3305C10.3728 28.4875 10.649 28.5713 10.9315 28.5713C11.3102 28.5709 11.6734 28.4202 11.9412 28.1524C12.209 27.8846 12.3596 27.5215 12.3601 27.1427ZM10.2172 27.1427C10.2172 27.0014 10.2591 26.8633 10.3376 26.7459C10.4161 26.6284 10.5276 26.5369 10.6582 26.4828C10.7887 26.4287 10.9323 26.4146 11.0709 26.4422C11.2094 26.4697 11.3367 26.5377 11.4366 26.6376C11.5365 26.7375 11.6045 26.8648 11.6321 27.0034C11.6596 27.1419 11.6455 27.2855 11.5914 27.4161C11.5374 27.5466 11.4458 27.6581 11.3283 27.7366C11.2109 27.8151 11.0728 27.857 10.9315 27.857C10.7421 27.8568 10.5605 27.7815 10.4266 27.6476C10.2927 27.5137 10.2174 27.3321 10.2172 27.1427Z" fill="black"/>
<path d="M7.77681 56.4366L8.83895 55.0402L8.16824 54.6602L7.48609 56.2244H7.46395L6.77109 54.6709L6.08895 55.0623L7.13966 56.4259V56.448L5.49609 56.2359V56.9959L7.15038 56.7837V56.8059L6.08895 58.1687L6.72538 58.5716L7.45252 56.9959H7.47466L8.14538 58.5602L8.84966 58.158L7.77681 56.8166V56.7944L9.46395 56.9959V56.2359L7.77681 56.4587V56.4366Z" fill="black"/>
<path d="M37.2009 31.4764L36.5895 32.2614L36.9566 32.4929L37.3752 31.5857H37.3873L37.7738 32.4864L38.1795 32.255L37.5616 31.4822V31.4693L38.533 31.5857V31.1479L37.5616 31.2764V31.2636L38.173 30.4593L37.7873 30.2407L37.3945 31.1414H37.3816L36.9823 30.2464L36.5895 30.4721L37.1945 31.2571V31.27L36.248 31.1479V31.5857L37.2009 31.4636V31.4764Z" fill="black"/>
<path d="M110.932 41.2233V40.4783L109.277 40.6976V40.6755L110.319 39.3055L109.661 38.9326L108.992 40.4669H108.97L108.291 38.9433L107.621 39.3276L108.652 40.6648V40.6869L107.04 40.4783V41.2233L108.663 41.0155V41.0376L107.621 42.3748L108.246 42.7698L108.959 41.2233H108.981L109.639 42.7583L110.329 42.364L109.277 41.0483V41.0262L110.932 41.2233Z" fill="black"/>
<path d="M83.3912 21.133L84.2898 19.9508L83.7219 19.6294L83.1455 20.953H83.1262L82.5405 19.6387L81.9626 19.9701L82.8519 21.1237V21.1423L81.4619 20.963V21.6058L82.8612 21.4258V21.4451L81.9626 22.5987L82.5019 22.9394L83.1169 21.6058H83.1355L83.7033 22.9294L84.2991 22.5894L83.3912 21.4544V21.4351L84.8183 21.6058V20.963L83.3912 21.1515V21.133Z" fill="black"/>
<path d="M84.3961 104.286H78.462C78.1028 104.315 77.7677 104.478 77.5233 104.742C77.279 105.007 77.1433 105.354 77.1433 105.714C77.1433 106.075 77.279 106.422 77.5233 106.687C77.7677 106.951 78.1028 107.114 78.462 107.143H84.3961C84.7552 107.114 85.0903 106.951 85.3347 106.687C85.579 106.422 85.7148 106.075 85.7148 105.714C85.7148 105.354 85.579 105.007 85.3347 104.742C85.0903 104.478 84.7552 104.315 84.3961 104.286ZM41.5389 104.286H35.6048C35.2457 104.315 34.9106 104.478 34.6662 104.742C34.4218 105.007 34.2861 105.354 34.2861 105.714C34.2861 106.075 34.4218 106.422 34.6662 106.687C34.9106 106.951 35.2457 107.114 35.6048 107.143H41.5389C41.898 107.114 42.2332 106.951 42.4775 106.687C42.7219 106.422 42.8576 106.075 42.8576 105.714C42.8576 105.354 42.7219 105.007 42.4775 104.742C42.2332 104.478 41.898 104.315 41.5389 104.286ZM74.2862 104.286H45.7147C45.3358 104.286 44.9725 104.436 44.7046 104.704C44.4367 104.972 44.2862 105.336 44.2862 105.714C44.2862 106.093 44.4367 106.457 44.7046 106.725C44.9725 106.993 45.3358 107.143 45.7147 107.143H57.1004V108.572H51.429C51.0501 108.572 50.6868 108.722 50.4189 108.99C50.1509 109.258 50.0004 109.621 50.0004 110C50.0004 110.379 50.1509 110.742 50.4189 111.01C50.6868 111.278 51.0501 111.429 51.429 111.429H69.2862C69.665 111.429 70.0284 111.278 70.2963 111.01C70.5642 110.742 70.7147 110.379 70.7147 110C70.7147 109.621 70.5642 109.258 70.2963 108.99C70.0284 108.722 69.665 108.572 69.2862 108.572H62.9004V107.143H74.2862C74.665 107.143 75.0284 106.993 75.2963 106.725C75.5642 106.457 75.7147 106.093 75.7147 105.714C75.7147 105.336 75.5642 104.972 75.2963 104.704C75.0284 104.436 74.665 104.286 74.2862 104.286ZM57.1442 86.4289C57.2373 86.4289 57.331 86.4243 57.4253 86.4152L83.3633 83.8741C83.865 83.8249 84.3447 83.644 84.7538 83.3495C85.1629 83.0551 85.4868 82.6577 85.6927 82.1976C85.8986 81.7375 85.9791 81.2312 85.9261 80.73C85.8731 80.2287 85.6884 79.7504 85.3908 79.3436L83.4367 76.6724L97.8646 72.9272C98.3158 72.81 98.7316 72.5843 99.0755 72.2695C99.4194 71.9548 99.6811 71.5607 99.8378 71.1216C99.9944 70.6825 100.041 70.2117 99.9741 69.7504C99.907 69.289 99.728 68.8511 99.4528 68.4748L93.5871 60.4562C93.1964 59.9218 92.6322 59.5396 91.9909 59.3752C91.3497 59.2107 90.6712 59.2742 90.0715 59.5546L68.9965 69.4027C68.6142 69.5814 68.2762 69.8425 68.0068 70.1673C67.7375 70.4922 67.5434 70.8726 67.4385 71.2814C67.3337 71.6902 67.3207 72.1171 67.4005 72.5315C67.4804 72.9458 67.651 73.3374 67.9001 73.678L69.9997 76.5483L56.2921 80.8453C55.6407 81.0495 55.084 81.4802 54.7227 82.0593C54.3614 82.6385 54.2193 83.3279 54.3223 84.0027C54.4253 84.6776 54.7665 85.2932 55.2841 85.7383C55.8017 86.1833 56.4616 86.4283 57.1442 86.4289H57.1442ZM74.661 78.0812L70.2061 71.9912L91.2811 62.1431L97.1467 70.1617L78.6469 74.9638L83.0848 81.0305L57.1467 83.5716L74.661 78.0812Z" fill="black"/>
<path d="M1.42857 101.428C2.21755 101.428 2.85714 100.789 2.85714 99.9999C2.85714 99.2109 2.21755 98.5713 1.42857 98.5713C0.639593 98.5713 0 99.2109 0 99.9999C0 100.789 0.639593 101.428 1.42857 101.428Z" fill="black"/>
<path d="M7.85756 98.5713H5.7147C5.33582 98.5713 4.97246 98.7218 4.70455 98.9897C4.43664 99.2576 4.28613 99.621 4.28613 99.9999C4.28613 100.379 4.43664 100.742 4.70455 101.01C4.97246 101.278 5.33582 101.428 5.7147 101.428H7.85756C8.23644 101.428 8.5998 101.278 8.86771 101.01C9.13562 100.742 9.28613 100.379 9.28613 99.9999C9.28613 99.621 9.13562 99.2576 8.86771 98.9897C8.5998 98.7218 8.23644 98.5713 7.85756 98.5713ZM114.286 98.5713H112.143C111.764 98.5713 111.401 98.7218 111.133 98.9897C110.865 99.2576 110.715 99.621 110.715 99.9999C110.715 100.379 110.865 100.742 111.133 101.01C111.401 101.278 111.764 101.428 112.143 101.428H114.286C114.665 101.428 115.028 101.278 115.296 101.01C115.564 100.742 115.715 100.379 115.715 99.9999C115.715 99.621 115.564 99.2576 115.296 98.9897C115.028 98.7218 114.665 98.5713 114.286 98.5713Z" fill="black"/>
<path d="M118.571 101.428C119.36 101.428 120 100.789 120 99.9999C120 99.2109 119.36 98.5713 118.571 98.5713C117.782 98.5713 117.143 99.2109 117.143 99.9999C117.143 100.789 117.782 101.428 118.571 101.428Z" fill="black"/>
<path d="M107.658 98.5713H91.3085C96.5846 95.8766 100.803 91.4884 103.288 86.1101C105.773 80.7319 106.38 74.6751 105.011 68.9108C103.643 63.1465 100.379 58.0084 95.743 54.3203C91.1065 50.6322 85.3659 48.6077 79.4416 48.5713H79.4403C74.2382 48.581 69.1561 50.1344 64.8376 53.0348C60.5192 55.9352 57.1587 60.0521 55.1819 64.8639C54.7455 65.9793 54.401 67.1284 54.1518 68.2999C53.9848 68.9974 53.8271 69.6561 53.6279 70.2641C53.0257 72.1023 51.0496 73.7907 48.2063 74.8965C48.0148 74.9711 47.815 75.0415 47.6212 75.1102C47.0821 75.3006 46.6126 75.6487 46.2739 76.1093C45.9352 76.5699 45.7428 77.1217 45.7218 77.6931L36.3123 81.2924C35.7867 81.491 35.3059 81.7923 34.8981 82.1788C34.4903 82.5653 34.1636 83.0292 33.9371 83.5434C33.6011 84.2976 33.4957 85.1343 33.6341 85.9483L26.8034 94.7948L26.8005 94.7997L17.683 97.8389L23.3833 73.1375L49.9012 60.5767C50.1872 60.4411 50.4201 60.2142 50.5633 59.9319C50.7064 59.6495 50.7517 59.3275 50.6921 59.0166C50.6325 58.7057 50.4713 58.4234 50.2338 58.214C49.9963 58.0046 49.696 57.88 49.3801 57.8598L15.8087 55.7169C15.6213 55.7048 15.4333 55.7297 15.2556 55.7902C15.0778 55.8507 14.9138 55.9457 14.7727 56.0697C14.6317 56.1937 14.5165 56.3442 14.4337 56.5128C14.351 56.6813 14.3022 56.8645 14.2903 57.0519C14.2784 57.2393 14.3035 57.4272 14.3643 57.6049C14.425 57.7826 14.5202 57.9465 14.6444 58.0874C14.7686 58.2282 14.9193 58.3432 15.088 58.4258C15.2566 58.5083 15.4399 58.5568 15.6273 58.5685L43.6853 60.3591L21.5348 70.8516C21.34 70.9438 21.1686 71.079 21.0334 71.2469C20.8982 71.4148 20.8028 71.6111 20.7543 71.8211L14.5812 98.5713H12.3422C12.139 98.5447 11.9324 98.5619 11.7363 98.6215C11.5402 98.6811 11.3591 98.7819 11.2051 98.9171C11.0511 99.0524 10.9277 99.2189 10.8431 99.4056C10.7586 99.5923 10.7148 99.7949 10.7148 99.9999C10.7148 100.205 10.7586 100.407 10.8431 100.594C10.9277 100.781 11.0511 100.947 11.2051 101.083C11.3591 101.218 11.5402 101.319 11.7363 101.378C11.9324 101.438 12.139 101.455 12.3422 101.428H107.658C107.862 101.455 108.068 101.438 108.264 101.378C108.46 101.319 108.641 101.218 108.795 101.083C108.95 100.947 109.073 100.781 109.157 100.594C109.242 100.407 109.286 100.205 109.286 99.9999C109.286 99.7949 109.242 99.5923 109.157 99.4056C109.073 99.2189 108.95 99.0524 108.795 98.9171C108.641 98.7819 108.46 98.6811 108.264 98.6215C108.068 98.5619 107.862 98.5447 107.658 98.5713ZM49.242 77.5593C52.4316 76.3187 55.3515 74.18 56.343 71.1536C56.9066 69.4335 57.1301 67.6171 57.8228 65.9545C59.6391 61.6254 62.7095 57.939 66.6387 55.3698C70.568 52.8006 75.1762 51.4662 79.8703 51.5382C84.5644 51.6103 89.1295 53.0856 92.978 55.7742C96.8265 58.4629 99.7823 62.2418 101.465 66.6245C103.147 71.0073 103.48 75.7933 102.419 80.3666C101.359 84.9399 98.9535 89.0911 95.5136 92.2858C92.0737 95.4806 87.7563 97.5728 83.1172 98.293C78.4782 99.0132 73.7297 98.3286 69.4831 96.3271C67.8596 95.5652 66.4807 94.3721 64.9144 93.4803C63.6243 92.7761 62.1725 92.4217 60.7031 92.4521C58.8765 92.4879 57.072 92.8583 55.379 93.545C55.2143 93.609 55.0485 93.6796 54.8837 93.7492L48.7558 78.0516C48.7193 77.9591 48.6733 77.8706 48.6184 77.7876C48.8258 77.714 49.0378 77.6389 49.242 77.5593H49.242ZM67.6011 98.5713H46.4756L52.9945 96.0778C53.3926 96.3875 53.8663 96.5849 54.3665 96.6495C54.8667 96.7142 55.3751 96.6438 55.8389 96.4456C56.0282 96.3653 56.2232 96.2823 56.4148 96.2078C57.7777 95.6502 59.2308 95.3457 60.7029 95.3092C61.6765 95.2802 62.6409 95.5056 63.5007 95.9632C64.053 96.2776 64.6092 96.658 65.1981 97.0608C65.9714 97.6071 66.7736 98.1113 67.6011 98.5713ZM36.5495 84.6999C36.6244 84.5309 36.7323 84.3786 36.8668 84.2517C37.0013 84.1249 37.1597 84.0261 37.3328 83.9612L46.5284 80.444L51.5657 93.5652L47.6773 95.0523L43.7195 84.4983C43.6538 84.3224 43.5541 84.1611 43.4261 84.0237C43.298 83.8863 43.1441 83.7756 42.9732 83.6977C42.8023 83.6199 42.6177 83.5765 42.4301 83.57C42.2424 83.5635 42.0552 83.5942 41.8794 83.6601C41.7035 83.726 41.5424 83.8259 41.4052 83.9542C41.268 84.0824 41.1574 84.2365 41.0798 84.4075C41.0022 84.5785 40.9591 84.7631 40.9529 84.9508C40.9467 85.1385 40.9776 85.3256 41.0437 85.5014L45.0082 96.0732L42.4618 97.0472C42.1131 97.1828 41.725 97.1753 41.3818 97.0264C41.0385 96.8775 40.7679 96.5992 40.6287 96.252L36.5264 85.7441C36.4607 85.5773 36.4288 85.399 36.4328 85.2197C36.4367 85.0404 36.4764 84.8637 36.5495 84.6999ZM34.783 89.1359L37.1212 95.1252L30.644 94.4962L34.783 89.1359ZM28.7024 97.1778L38.4169 98.1211C38.5251 98.279 38.6439 98.4294 38.7723 98.5713H24.5217L28.7024 97.1778Z" fill="black"/>
</svg>
