<svg width="120" height="120" viewBox="0 0 120 120" fill="none" xmlns="http://www.w3.org/2000/svg">
<path d="M60.6603 63.0676C62.3544 63.0676 63.7278 61.6943 63.7278 60.0001C63.7278 58.306 62.3544 56.9326 60.6603 56.9326C58.9661 56.9326 57.5928 58.306 57.5928 60.0001C57.5928 61.6943 58.9661 63.0676 60.6603 63.0676Z" fill="black"/>
<path d="M60.6618 102.825C69.1317 102.824 77.4113 100.312 84.4536 95.6066C91.4959 90.9007 96.9846 84.2122 100.226 76.3869C103.467 68.5617 104.314 59.951 102.662 51.6439C101.009 43.3368 96.9304 35.7063 90.9411 29.7173C84.9519 23.7283 77.3212 19.6498 69.014 17.9976C60.7068 16.3453 52.0962 17.1935 44.2711 20.4349C36.446 23.6762 29.7577 29.1652 25.0521 36.2077C20.3466 43.2502 17.835 51.5299 17.835 59.9998C17.8479 71.3541 22.3642 82.2396 30.393 90.2681C38.4219 98.2966 49.3076 102.812 60.6618 102.825ZM60.6618 20.9248C68.3901 20.9252 75.9446 23.2172 82.3702 27.5111C88.7958 31.8049 93.8039 37.9077 96.7611 45.0478C99.7183 52.1878 100.492 60.0444 98.9839 67.6241C97.476 75.2038 93.7543 82.1661 88.2895 87.6307C82.8247 93.0952 75.8622 96.8166 68.2824 98.3242C60.7027 99.8317 52.8461 99.0578 45.7062 96.1002C38.5663 93.1427 32.4637 88.1343 28.1702 81.7085C23.8766 75.2827 21.585 67.728 21.585 59.9998C21.5964 49.6397 25.7171 39.7071 33.043 32.3816C40.3689 25.056 50.3017 20.9357 60.6618 20.9248Z" fill="black"/>
<path d="M35.5029 84.6056C35.6386 84.6379 35.7778 84.6537 35.9173 84.6525C36.323 84.6525 36.7177 84.5209 37.0423 84.2775L53.531 71.9962L51.5192 85.4775C51.3593 86.5478 51.4266 87.6398 51.7167 88.6823C52.0069 89.7249 52.5134 90.6947 53.2032 91.5285C53.893 92.3623 54.7508 93.0415 55.7205 93.5218C56.6903 94.0021 57.7503 94.2728 58.8317 94.3162L67.946 94.6912H68.0229C68.2876 94.6914 68.5494 94.6356 68.7909 94.5273C69.0325 94.4191 69.2484 94.2609 69.4245 94.0633C69.6005 93.8656 69.7327 93.6329 69.8124 93.3805C69.8921 93.1281 69.9174 92.8616 69.8867 92.5987L67.4848 72.1743L78.1554 80.6625C79.5201 81.7456 81.2112 82.3351 82.9535 82.335C83.3834 82.3351 83.8124 82.2987 84.236 82.2262C85.3023 82.0455 86.3188 81.6427 87.2193 81.0438C88.1199 80.4449 88.8845 79.6634 89.4635 78.75L94.3385 71.0418C94.4835 70.8128 94.577 70.5551 94.6128 70.2864C94.6485 70.0178 94.6256 69.7445 94.5456 69.4856C94.4656 69.2266 94.3303 68.9881 94.1493 68.7865C93.9682 68.5848 93.7455 68.4248 93.4967 68.3175L74.6248 60.1875L87.311 55.1906C88.3164 54.7919 89.2267 54.1864 89.9828 53.4131C90.739 52.6399 91.3241 51.7163 91.7002 50.7023C92.0762 49.6883 92.2349 48.6065 92.1658 47.5272C92.0967 46.4479 91.8015 45.3952 91.2992 44.4375L87.0635 36.36C86.9375 36.1201 86.7609 35.9103 86.5459 35.7453C86.331 35.5802 86.0828 35.4636 85.8185 35.4037C85.5542 35.3418 85.2794 35.3387 85.0137 35.3948C84.748 35.4509 84.4979 35.5646 84.281 35.7281L67.7923 48L69.8042 34.5168C69.9641 33.4465 69.8968 32.3545 69.6066 31.312C69.3165 30.2694 68.81 29.2996 68.1201 28.4658C67.4303 27.632 66.5726 26.9528 65.6028 26.4725C64.633 25.9922 63.573 25.7215 62.4917 25.6781L53.3754 25.3031C53.1045 25.293 52.8346 25.3411 52.5839 25.4443C52.3332 25.5475 52.1076 25.7033 51.9223 25.9012C51.7373 26.101 51.598 26.3386 51.5142 26.5977C51.4303 26.8567 51.4038 27.1309 51.4367 27.4012L53.831 47.8275L43.1642 39.3375C42.3171 38.6648 41.338 38.1779 40.2904 37.9084C39.2429 37.6389 38.1503 37.5929 37.0838 37.7733C36.0173 37.9536 35.0007 38.3564 34.1 38.9554C33.1994 39.5544 32.4348 40.3362 31.856 41.25L26.981 48.9581C26.8361 49.1871 26.7425 49.4448 26.7068 49.7135C26.6711 49.9821 26.694 50.2554 26.774 50.5143C26.854 50.7733 26.9892 51.0118 27.1703 51.2135C27.3514 51.4151 27.574 51.5751 27.8229 51.6825L46.7079 59.8218L34.0198 64.8187C33.0135 65.2162 32.102 65.821 31.3447 66.5937C30.5873 67.3665 30.001 68.2899 29.6238 69.304C29.2467 70.3182 29.087 71.4003 29.1554 72.4801C29.2237 73.56 29.5184 74.6133 30.0204 75.5718L34.2579 83.6493C34.3834 83.8897 34.5598 84.0998 34.7748 84.2649C34.9899 84.4301 35.2383 84.5463 35.5029 84.6056ZM60.6617 52.665C62.1123 52.6653 63.5303 53.0958 64.7363 53.902C65.9423 54.7082 66.8821 55.8539 67.437 57.1943C67.9919 58.5346 68.1369 60.0094 67.8536 61.4321C67.5704 62.8548 66.8716 64.1616 65.8458 65.1872C64.8199 66.2129 63.5129 66.9113 62.0901 67.1942C60.6673 67.477 59.1926 67.3317 57.8524 66.7764C56.5122 66.2212 55.3667 65.2811 54.5608 64.0749C53.7549 62.8687 53.3248 61.4506 53.3248 60C53.3273 58.055 54.1011 56.1905 55.4766 54.8154C56.852 53.4403 58.7167 52.6669 60.6617 52.665ZM58.9742 90.5737C58.4193 90.5506 57.8755 90.411 57.3782 90.164C56.8808 89.9169 56.441 89.568 56.0873 89.1399C55.7337 88.7118 55.474 88.214 55.3253 87.679C55.1766 87.1439 55.1421 86.5836 55.2242 86.0343L57.5248 70.6256C59.4786 71.2124 61.5583 71.2358 63.5248 70.6931L65.8892 90.8549L58.9742 90.5737ZM86.2948 76.7437C85.998 77.2142 85.6053 77.6168 85.1423 77.9253C84.6794 78.2337 84.1566 78.4411 83.6081 78.5338C83.0596 78.6265 82.4977 78.6025 81.9591 78.4633C81.4205 78.3242 80.9173 78.073 80.4823 77.7262L68.2873 68.025C69.7678 66.6177 70.8306 64.8288 71.3585 62.8556L89.9998 70.8918L86.2948 76.7437ZM84.761 40.0387L87.9785 46.1718C88.2365 46.6637 88.388 47.2043 88.4231 47.7586C88.4583 48.3128 88.3764 48.8683 88.1828 49.3888C87.9891 49.9093 87.688 50.3833 87.2991 50.7797C86.9102 51.1762 86.4421 51.4863 85.9254 51.69L71.426 57.405C70.9505 55.4171 69.9335 53.5999 68.4879 52.155L84.761 40.0387ZM62.3435 29.4262C62.8986 29.4487 63.4427 29.588 63.9403 29.8348C64.438 30.0816 64.878 30.4306 65.2318 30.8588C65.5856 31.2871 65.8452 31.7851 65.9937 32.3204C66.1421 32.8557 66.1762 33.4163 66.0935 33.9656L63.7929 49.3725C61.8359 48.7856 59.7529 48.7629 57.7835 49.3068L55.421 29.145L62.3435 29.4262ZM35.0248 43.2562C35.3216 42.7857 35.7143 42.3831 36.1772 42.0746C36.6402 41.7662 37.163 41.5588 37.7115 41.4661C38.26 41.3734 38.8219 41.3974 39.3605 41.5366C39.8991 41.6757 40.4023 41.9269 40.8373 42.2737L53.0398 51.9768C51.5587 53.3828 50.4957 55.1714 49.9685 57.1443L31.3123 49.1081L35.0248 43.2562ZM33.1367 70.6125C33.3266 70.0909 33.6256 69.6157 34.0135 69.2187C34.4015 68.8217 34.8696 68.5119 35.3867 68.31L49.8879 62.595C50.3635 64.5828 51.3805 66.4 52.826 67.845L36.5623 79.9612L33.3448 73.8281C33.0836 73.3377 32.9299 72.7972 32.894 72.2427C32.8581 71.6882 32.9408 71.1325 33.1367 70.6125Z" fill="black"/>
<path d="M12.5625 10.0371C12.0652 10.0371 11.5883 10.2347 11.2367 10.5863C10.885 10.9379 10.6875 11.4148 10.6875 11.9121V108.088C10.6875 108.586 10.885 109.063 11.2367 109.414C11.5883 109.766 12.0652 109.963 12.5625 109.963H108.75C109.247 109.963 109.724 109.766 110.076 109.414C110.427 109.063 110.625 108.586 110.625 108.088V11.9121C110.625 11.4148 110.427 10.9379 110.076 10.5863C109.724 10.2347 109.247 10.0371 108.75 10.0371H12.5625ZM106.875 106.213H14.4375V13.7871H106.875V106.213Z" fill="black"/>
<path d="M98.6641 24.8701C99.3316 24.8701 99.9841 24.6722 100.539 24.3013C101.094 23.9305 101.527 23.4034 101.782 22.7867C102.038 22.17 102.104 21.4914 101.974 20.8367C101.844 20.182 101.523 19.5806 101.051 19.1086C100.579 18.6366 99.9772 18.3152 99.3225 18.185C98.6678 18.0547 97.9892 18.1216 97.3725 18.377C96.7558 18.6325 96.2287 19.0651 95.8579 19.6201C95.487 20.1751 95.2891 20.8276 95.2891 21.4951C95.2891 22.3902 95.6446 23.2487 96.2776 23.8816C96.9105 24.5145 97.769 24.8701 98.6641 24.8701Z" fill="black"/>
<path d="M22.6554 24.8698C24.5183 24.8698 26.0285 23.3596 26.0285 21.4967C26.0285 19.6337 24.5183 18.1235 22.6554 18.1235C20.7924 18.1235 19.2822 19.6337 19.2822 21.4967C19.2822 23.3596 20.7924 24.8698 22.6554 24.8698Z" fill="black"/>
<path d="M98.6641 95.1299C97.9965 95.1299 97.344 95.3278 96.789 95.6987C96.234 96.0695 95.8014 96.5966 95.546 97.2133C95.2905 97.83 95.2237 98.5086 95.3539 99.1633C95.4841 99.818 95.8056 100.419 96.2776 100.891C96.7496 101.363 97.3509 101.685 98.0056 101.815C98.6603 101.945 99.3389 101.878 99.9556 101.623C100.572 101.368 101.099 100.935 101.47 100.38C101.841 99.8249 102.039 99.1724 102.039 98.5049C102.039 97.6098 101.683 96.7513 101.051 96.1184C100.418 95.4855 99.5592 95.1299 98.6641 95.1299Z" fill="black"/>
<path d="M22.6554 101.876C24.5183 101.876 26.0285 100.366 26.0285 98.503C26.0285 96.6401 24.5183 95.1299 22.6554 95.1299C20.7924 95.1299 19.2822 96.6401 19.2822 98.503C19.2822 100.366 20.7924 101.876 22.6554 101.876Z" fill="black"/>
</svg>
