<svg width="120" height="120" viewBox="0 0 120 120" fill="none" xmlns="http://www.w3.org/2000/svg">
<path d="M99.3067 41.5586L99.3068 41.5587L113.707 111.158C113.836 111.794 113.674 112.46 113.267 112.953L113.265 112.955C112.857 113.46 112.244 113.75 111.6 113.75H8.39956C7.75475 113.75 7.14231 113.46 6.73397 112.955C6.32467 112.449 6.16357 111.793 6.29247 111.158C6.29249 111.158 6.29252 111.158 6.29255 111.158L20.6924 41.5587L20.6924 41.5586C20.8963 40.5711 21.7777 39.85 22.7996 39.85H97.1996C98.2214 39.85 99.1028 40.5711 99.3067 41.5586ZM101.448 74.65H101.755L101.692 74.3494L95.4884 44.3494L95.4472 44.15H95.2436H62.3996H62.1496V44.4V74.4V74.65H62.3996H101.4H101.4H101.4H101.4H101.4H101.4H101.4H101.4H101.4H101.4H101.4H101.4H101.4H101.4H101.401H101.401H101.401H101.401H101.401H101.401H101.401H101.401H101.401H101.401H101.401H101.401H101.401H101.401H101.402H101.402H101.402H101.402H101.402H101.402H101.402H101.402H101.402H101.402H101.402H101.402H101.402H101.402H101.403H101.403H101.403H101.403H101.403H101.403H101.403H101.403H101.403H101.403H101.403H101.403H101.403H101.403H101.404H101.404H101.404H101.404H101.404H101.404H101.404H101.404H101.404H101.404H101.404H101.404H101.404H101.404H101.405H101.405H101.405H101.405H101.405H101.405H101.405H101.405H101.405H101.405H101.405H101.405H101.405H101.405H101.406H101.406H101.406H101.406H101.406H101.406H101.406H101.406H101.406H101.406H101.406H101.406H101.406H101.406H101.407H101.407H101.407H101.407H101.407H101.407H101.407H101.407H101.407H101.407H101.407H101.407H101.407H101.407H101.408H101.408H101.408H101.408H101.408H101.408H101.408H101.408H101.408H101.408H101.408H101.408H101.408H101.409H101.409H101.409H101.409H101.409H101.409H101.409H101.409H101.409H101.409H101.409H101.409H101.409H101.41H101.41H101.41H101.41H101.41H101.41H101.41H101.41H101.41H101.41H101.41H101.41H101.41H101.41H101.411H101.411H101.411H101.411H101.411H101.411H101.411H101.411H101.411H101.411H101.411H101.411H101.411H101.412H101.412H101.412H101.412H101.412H101.412H101.412H101.412H101.412H101.412H101.412H101.412H101.413H101.413H101.413H101.413H101.413H101.413H101.413H101.413H101.413H101.413H101.413H101.413H101.413H101.414H101.414H101.414H101.414H101.414H101.414H101.414H101.414H101.414H101.414H101.414H101.414H101.415H101.415H101.415H101.415H101.415H101.415H101.415H101.415H101.415H101.415H101.415H101.415H101.415H101.416H101.416H101.416H101.416H101.416H101.416H101.416H101.416H101.416H101.416H101.416H101.416H101.417H101.417H101.417H101.417H101.417H101.417H101.417H101.417H101.417H101.417H101.417H101.418H101.418H101.418H101.418H101.418H101.418H101.418H101.418H101.418H101.418H101.418H101.418H101.419H101.419H101.419H101.419H101.419H101.419H101.419H101.419H101.419H101.419H101.419H101.42H101.42H101.42H101.42H101.42H101.42H101.42H101.42H101.42H101.42H101.42H101.42H101.421H101.421H101.421H101.421H101.421H101.421H101.421H101.421H101.421H101.421H101.421H101.422H101.422H101.422H101.422H101.422H101.422H101.422H101.422H101.422H101.422H101.423H101.423H101.423H101.423H101.423H101.423H101.423H101.423H101.423H101.423H101.423H101.424H101.424H101.424H101.424H101.424H101.424H101.424H101.424H101.424H101.424H101.425H101.425H101.425H101.425H101.425H101.425H101.425H101.425H101.425H101.425H101.425H101.426H101.426H101.426H101.426H101.426H101.426H101.426H101.426H101.426H101.426H101.427H101.427H101.427H101.427H101.427H101.427H101.427H101.427H101.427H101.427H101.428H101.428H101.428H101.428H101.428H101.428H101.428H101.428H101.428H101.429H101.429H101.429H101.429H101.429H101.429H101.429H101.429H101.429H101.429H101.43H101.43H101.43H101.43H101.43H101.43H101.43H101.43H101.43H101.431H101.431H101.431H101.431H101.431H101.431H101.431H101.431H101.431H101.432H101.432H101.432H101.432H101.432H101.432H101.432H101.432H101.432H101.433H101.433H101.433H101.433H101.433H101.433H101.433H101.433H101.433H101.434H101.434H101.434H101.434H101.434H101.434H101.434H101.434H101.434H101.435H101.435H101.435H101.435H101.435H101.435H101.435H101.435H101.435H101.436H101.436H101.436H101.436H101.436H101.436H101.436H101.436H101.437H101.437H101.437H101.437H101.437H101.437H101.437H101.437H101.438H101.438H101.438H101.438H101.438H101.438H101.438H101.438H101.438H101.439H101.439H101.439H101.439H101.439H101.439H101.439H101.439H101.44H101.44H101.44H101.44H101.44H101.44H101.44H101.44H101.441H101.441H101.441H101.441H101.441H101.441H101.441H101.442H101.442H101.442H101.442H101.442H101.442H101.442H101.442H101.443H101.443H101.443H101.443H101.443H101.443H101.443H101.443H101.444H101.444H101.444H101.444H101.444H101.444H101.444H101.445H101.445H101.445H101.445H101.445H101.445H101.445H101.445H101.446H101.446H101.446H101.446H101.446H101.446H101.446H101.447H101.447H101.447H101.447H101.447H101.447H101.447H101.448ZM24.7556 44.15H24.552L24.5107 44.3494L18.3067 74.3494L18.2446 74.65H18.5516H18.5516H18.5517H18.5518H18.5518H18.5519H18.552H18.5521H18.5521H18.5522H18.5523H18.5523H18.5524H18.5525H18.5525H18.5526H18.5527H18.5528H18.5528H18.5529H18.553H18.553H18.5531H18.5532H18.5533H18.5533H18.5534H18.5535H18.5535H18.5536H18.5537H18.5537H18.5538H18.5539H18.554H18.554H18.5541H18.5542H18.5542H18.5543H18.5544H18.5545H18.5545H18.5546H18.5547H18.5547H18.5548H18.5549H18.5549H18.555H18.5551H18.5552H18.5552H18.5553H18.5554H18.5554H18.5555H18.5556H18.5557H18.5557H18.5558H18.5559H18.5559H18.556H18.5561H18.5562H18.5562H18.5563H18.5564H18.5564H18.5565H18.5566H18.5567H18.5567H18.5568H18.5569H18.5569H18.557H18.5571H18.5572H18.5572H18.5573H18.5574H18.5575H18.5575H18.5576H18.5577H18.5577H18.5578H18.5579H18.558H18.558H18.5581H18.5582H18.5582H18.5583H18.5584H18.5585H18.5585H18.5586H18.5587H18.5588H18.5588H18.5589H18.559H18.5591H18.5591H18.5592H18.5593H18.5593H18.5594H18.5595H18.5596H18.5596H18.5597H18.5598H18.5599H18.5599H18.56H18.5601H18.5602H18.5602H18.5603H18.5604H18.5605H18.5605H18.5606H18.5607H18.5608H18.5608H18.5609H18.561H18.5611H18.5611H18.5612H18.5613H18.5614H18.5614H18.5615H18.5616H18.5617H18.5617H18.5618H18.5619H18.562H18.562H18.5621H18.5622H18.5623H18.5623H18.5624H18.5625H18.5626H18.5626H18.5627H18.5628H18.5629H18.5629H18.563H18.5631H18.5632H18.5633H18.5633H18.5634H18.5635H18.5636H18.5636H18.5637H18.5638H18.5639H18.564H18.564H18.5641H18.5642H18.5643H18.5643H18.5644H18.5645H18.5646H18.5647H18.5647H18.5648H18.5649H18.565H18.5651H18.5651H18.5652H18.5653H18.5654H18.5655H18.5655H18.5656H18.5657H18.5658H18.5659H18.5659H18.566H18.5661H18.5662H18.5663H18.5663H18.5664H18.5665H18.5666H18.5667H18.5667H18.5668H18.5669H18.567H18.5671H18.5672H18.5672H18.5673H18.5674H18.5675H18.5676H18.5677H18.5677H18.5678H18.5679H18.568H18.5681H18.5682H18.5682H18.5683H18.5684H18.5685H18.5686H18.5687H18.5687H18.5688H18.5689H18.569H18.5691H18.5692H18.5692H18.5693H18.5694H18.5695H18.5696H18.5697H18.5698H18.5698H18.5699H18.57H18.5701H18.5702H18.5703H18.5704H18.5705H18.5705H18.5706H18.5707H18.5708H18.5709H18.571H18.5711H18.5712H18.5712H18.5713H18.5714H18.5715H18.5716H18.5717H18.5718H18.5719H18.5719H18.572H18.5721H18.5722H18.5723H18.5724H18.5725H18.5726H18.5727H18.5728H18.5729H18.5729H18.573H18.5731H18.5732H18.5733H18.5734H18.5735H18.5736H18.5737H18.5738H18.5739H18.5739H18.574H18.5741H18.5742H18.5743H18.5744H18.5745H18.5746H18.5747H18.5748H18.5749H18.575H18.5751H18.5752H18.5753H18.5754H18.5755H18.5755H18.5756H18.5757H18.5758H18.5759H18.576H18.5761H18.5762H18.5763H18.5764H18.5765H18.5766H18.5767H18.5768H18.5769H18.577H18.5771H18.5772H18.5773H18.5774H18.5775H18.5776H18.5777H18.5778H18.5779H18.578H18.5781H18.5782H18.5783H18.5784H18.5785H18.5786H18.5787H18.5788H18.5789H18.579H18.5791H18.5792H18.5793H18.5794H18.5795H18.5796H18.5797H18.5798H18.5799H18.58H18.5801H18.5802H18.5803H18.5804H18.5805H18.5806H18.5807H18.5808H18.5809H18.581H18.5812H18.5813H18.5814H18.5815H18.5816H18.5817H18.5818H18.5819H18.582H18.5821H18.5822H18.5823H18.5824H18.5825H18.5826H18.5828H18.5829H18.583H18.5831H18.5832H18.5833H18.5834H18.5835H18.5836H18.5837H18.5838H18.584H18.5841H18.5842H18.5843H18.5844H18.5845H18.5846H18.5847H18.5848H18.585H18.5851H18.5852H18.5853H18.5854H18.5855H18.5856H18.5858H18.5859H18.586H18.5861H18.5862H18.5863H18.5864H18.5866H18.5867H18.5868H18.5869H18.587H18.5871H18.5873H18.5874H18.5875H18.5876H18.5877H18.5878H18.588H18.5881H18.5882H18.5883H18.5884H18.5885H18.5887H18.5888H18.5889H18.589H18.5891H18.5893H18.5894H18.5895H18.5896H18.5898H18.5899H18.59H18.5901H18.5902H18.5904H18.5905H18.5906H18.5907H18.5909H18.591H18.5911H18.5912H18.5914H18.5915H18.5916H18.5917H18.5919H18.592H18.5921H18.5922H18.5924H18.5925H18.5926H18.5927H18.5929H18.593H18.5931H18.5932H18.5934H18.5935H18.5936H18.5938H18.5939H18.594H18.5942H18.5943H18.5944H18.5945H18.5947H18.5948H18.5949H18.5951H18.5952H18.5953H18.5955H18.5956H18.5957H18.5959H18.596H18.5961H18.5963H18.5964H18.5965H18.5967H18.5968H18.5969H18.5971H18.5972H18.5973H18.5975H18.5976H18.5978H18.5979H18.598H18.5982H18.5983H18.5984H18.5986H18.5987H18.5989H18.599H18.5991H18.5993H18.5994H18.5996H57.5996H57.8496V74.4V44.4V44.15H57.5996H24.7556ZM17.7117 78.7466L17.4235 78.6083L17.3587 78.9214L11.1067 109.149L11.0446 109.45H11.3516H57.5996H57.8496V109.2V79.2V78.95H57.5996H18.5996C18.2792 78.95 17.98 78.8754 17.7117 78.7466ZM62.1496 109.2V109.45H62.3996H108.648H108.955L108.892 109.149L102.64 78.9214L102.576 78.6083L102.287 78.7466C102.019 78.8754 101.72 78.95 101.4 78.95H62.3996H62.1496V79.2V109.2ZM76.9948 15.0118L76.7996 14.7678L76.6044 15.0118C76.1359 15.5974 75.597 16.1363 75.0114 16.6048L74.7704 16.7976L75.009 16.9933C75.5979 17.4762 76.137 18.004 76.6044 18.5882L76.7972 18.8292L76.9929 18.5905C77.4758 18.0016 78.0036 17.4626 78.5877 16.9952L78.8288 16.8024L78.5901 16.6067C78.0012 16.1238 77.4621 15.596 76.9948 15.0118ZM43.3948 19.8118L43.1996 19.5678L43.0043 19.8118C42.5359 20.3974 41.997 20.9363 41.4114 21.4048L41.1704 21.5976L41.409 21.7933C41.9979 22.2762 42.537 22.804 43.0043 23.3882L43.1972 23.6292L43.3929 23.3905C43.8758 22.8016 44.4036 22.2626 44.9877 21.7952L45.2288 21.6024L44.9901 21.4067C44.4012 20.9238 43.8621 20.396 43.3948 19.8118ZM74.6496 25.2C74.6496 21.7499 71.8496 18.95 68.3996 18.95C67.2176 18.95 66.2496 17.9819 66.2496 16.8C66.2496 15.6181 67.2176 14.65 68.3996 14.65C71.8496 14.65 74.6496 11.8501 74.6496 8.4C74.6496 7.21807 75.6176 6.25 76.7996 6.25C77.9815 6.25 78.9496 7.21807 78.9496 8.4C78.9496 11.8501 81.7495 14.65 85.1996 14.65C86.3815 14.65 87.3496 15.6181 87.3496 16.8C87.3496 17.9819 86.3815 18.95 85.1996 18.95C81.7495 18.95 78.9496 21.7499 78.9496 25.2C78.9496 26.3819 77.9815 27.35 76.7996 27.35C75.6176 27.35 74.6496 26.3819 74.6496 25.2ZM41.0496 30C41.0496 26.5499 38.2496 23.75 34.7996 23.75C33.6176 23.75 32.6496 22.7819 32.6496 21.6C32.6496 20.4181 33.6176 19.45 34.7996 19.45C38.2496 19.45 41.0496 16.6501 41.0496 13.2C41.0496 12.0181 42.0176 11.05 43.1996 11.05C44.3815 11.05 45.3496 12.0181 45.3496 13.2C45.3496 16.6501 48.1495 19.45 51.5996 19.45C52.7815 19.45 53.7496 20.4181 53.7496 21.6C53.7496 22.7819 52.7815 23.75 51.5996 23.75C48.1495 23.75 45.3496 26.5499 45.3496 30C45.3496 31.1819 44.3815 32.15 43.1996 32.15C42.0176 32.15 41.0496 31.1819 41.0496 30Z" fill="black" stroke="white" stroke-width="0.5"/>
</svg>
