<svg width="120" height="120" viewBox="0 0 120 120" fill="none" xmlns="http://www.w3.org/2000/svg">
<mask id="path-1-inside-1_1_1003" fill="white">
<path d="M36.4 50.5749C37.0193 50.5716 37.6332 50.6908 38.2063 50.9255C38.7794 51.1602 39.3005 51.5059 39.7396 51.9427C40.1787 52.3794 40.5271 52.8986 40.7649 53.4705C41.0026 54.0424 41.125 54.6556 41.125 55.2749V71.7999H50.575V55.2749C50.575 54.0284 51.0702 52.8329 51.9516 51.9515C52.833 51.0701 54.0285 50.5749 55.275 50.5749H64.725C65.9715 50.5749 67.167 51.0701 68.0484 51.9515C68.9298 52.8329 69.425 54.0284 69.425 55.2749V71.7999H78.875V55.2749C78.875 54.6556 78.9974 54.0424 79.2351 53.4705C79.4729 52.8986 79.8213 52.3794 80.2604 51.9427C80.6995 51.5059 81.2206 51.1602 81.7937 50.9255C82.3668 50.6908 82.9807 50.5716 83.6 50.5749H93.025C94.2738 50.5749 95.4719 51.0693 96.3573 51.95C97.2427 52.8307 97.7434 54.0261 97.75 55.2749V71.7999H100C100.331 71.7659 100.665 71.8016 100.981 71.9048C101.297 72.008 101.588 72.1764 101.834 72.3991C102.081 72.6218 102.278 72.8938 102.414 73.1975C102.549 73.5013 102.618 73.83 102.618 74.1624C102.618 74.4948 102.549 74.8235 102.414 75.1273C102.278 75.431 102.081 75.7031 101.834 75.9257C101.588 76.1484 101.297 76.3168 100.981 76.42C100.665 76.5232 100.331 76.559 100 76.5249H97.75V102.5C97.75 103.753 97.2522 104.955 96.3661 105.841C95.48 106.727 94.2781 107.225 93.025 107.225H83.6C82.9786 107.228 82.3627 107.108 81.7879 106.872C81.2132 106.636 80.6909 106.288 80.2515 105.848C79.8121 105.409 79.4642 104.887 79.2279 104.312C78.9916 103.737 78.8717 103.121 78.875 102.5V76.5249H69.425V102.5C69.4283 103.119 69.3092 103.733 69.0744 104.306C68.8397 104.879 68.494 105.4 68.0573 105.839C67.6205 106.279 67.1013 106.627 66.5294 106.865C65.9575 107.103 65.3443 107.225 64.725 107.225H55.275C54.6557 107.225 54.0425 107.103 53.4706 106.865C52.8987 106.627 52.3795 106.279 51.9427 105.839C51.506 105.4 51.1603 104.879 50.9256 104.306C50.6908 103.733 50.5717 103.119 50.575 102.5V76.5249H41.125V102.5C41.1283 103.121 41.0084 103.737 40.7721 104.312C40.5358 104.887 40.1879 105.409 39.7485 105.848C39.309 106.288 38.7869 106.636 38.2121 106.872C37.6373 107.108 37.0214 107.228 36.4 107.225H26.975C25.7219 107.225 24.52 106.727 23.6339 105.841C22.7478 104.955 22.25 103.753 22.25 102.5V76.5249H20C19.3581 76.5257 18.7404 76.2796 18.275 75.8374C17.8096 75.3953 17.5321 74.7911 17.5 74.1499C17.5383 73.5132 17.8185 72.9152 18.2832 72.4783C18.748 72.0415 19.3621 71.7988 20 71.7999H22.25V55.2749C22.2566 54.0261 22.7573 52.8307 23.6427 51.95C24.5281 51.0693 25.7262 50.5749 26.975 50.5749H36.4ZM34.05 55.2749H29.325C28.7093 55.3112 28.1288 55.5738 27.695 56.0122C27.2612 56.4506 27.0048 57.0339 26.975 57.6499V99.9999C26.975 100.623 27.2226 101.221 27.6633 101.662C28.104 102.102 28.7017 102.35 29.325 102.35H34.05C34.6733 102.35 35.271 102.102 35.7117 101.662C36.1524 101.221 36.4 100.623 36.4 99.9999V57.4999C36.3357 56.9107 36.064 56.3634 35.6336 55.9559C35.2032 55.5483 34.6419 55.307 34.05 55.2749ZM62.35 55.2749H57.65C57.0299 55.3052 56.4433 55.5652 56.0043 56.0042C55.5653 56.4432 55.3053 57.0298 55.275 57.6499V99.9999C55.3113 100.616 55.5739 101.196 56.0123 101.63C56.4507 102.064 57.034 102.32 57.65 102.35H62.35C62.966 102.32 63.5493 102.064 63.9877 101.63C64.4261 101.196 64.6887 100.616 64.725 99.9999V57.4999C64.6599 56.9066 64.3847 56.3561 63.9491 55.9481C63.5135 55.54 62.9463 55.3012 62.35 55.2749ZM90.675 55.2749H85.95C85.3343 55.3112 84.7538 55.5738 84.32 56.0122C83.8862 56.4506 83.6298 57.0339 83.6 57.6499V99.9999C83.6 100.623 83.8476 101.221 84.2883 101.662C84.729 102.102 85.3267 102.35 85.95 102.35H90.675C91.2983 102.35 91.896 102.102 92.3367 101.662C92.7774 101.221 93.025 100.623 93.025 99.9999V57.4999C92.9607 56.9107 92.689 56.3634 92.2586 55.9559C91.8282 55.5483 91.2669 55.307 90.675 55.2749ZM42.5 13.9749C42.7663 14.476 42.8238 15.062 42.6599 15.6052C42.496 16.1484 42.124 16.6048 41.625 16.8749C40.7231 17.2592 39.954 17.9001 39.4134 18.7179C38.8728 19.5358 38.5846 20.4945 38.5846 21.4749C38.5846 22.4553 38.8728 23.414 39.4134 24.2319C39.954 25.0498 40.7231 25.6907 41.625 26.0749C43.2169 26.8238 44.5681 28.0022 45.5265 29.4774C46.485 30.9526 47.0126 32.6661 47.05 34.4249C47.0217 36.0966 46.5422 37.7295 45.662 39.151C44.7819 40.5724 43.5338 41.7296 42.05 42.4999L41.525 42.7999C41.2853 42.9509 41.0183 43.0533 40.7391 43.1011C40.4599 43.1489 40.174 43.1412 39.8977 43.0786C39.6214 43.0159 39.3602 42.8994 39.129 42.7358C38.8978 42.5722 38.701 42.3646 38.55 42.1249C38.399 41.8853 38.2966 41.6182 38.2488 41.339C38.201 41.0598 38.2087 40.7739 38.2714 40.4976C38.334 40.2214 38.4505 39.9602 38.6141 39.7289C38.7778 39.4977 38.9853 39.3009 39.225 39.1499C40.1468 38.7656 40.9398 38.1263 41.5111 37.3071C42.0823 36.4879 42.408 35.5227 42.45 34.5249C42.409 33.5398 42.0887 32.5866 41.5265 31.7766C40.9644 30.9666 40.1835 30.333 39.275 29.9499C37.6515 29.2242 36.2716 28.0459 35.3006 26.5561C34.3296 25.0663 33.8086 23.3282 33.8 21.5499C33.809 19.8741 34.2807 18.2332 35.163 16.8084C36.0452 15.3835 37.3038 14.23 38.8 13.4749L39.325 13.1749C39.5786 12.9943 39.8685 12.871 40.1745 12.8134C40.4805 12.7559 40.7954 12.7655 41.0973 12.8415C41.3992 12.9176 41.681 13.0584 41.9232 13.2541C42.1654 13.4497 42.3622 13.6957 42.5 13.9749ZM77.1 13.9749C77.3663 14.476 77.4238 15.062 77.2599 15.6052C77.096 16.1484 76.724 16.6048 76.225 16.8749C75.3231 17.2592 74.554 17.9001 74.0134 18.7179C73.4728 19.5358 73.1846 20.4945 73.1846 21.4749C73.1846 22.4553 73.4728 23.414 74.0134 24.2319C74.554 25.0498 75.3231 25.6907 76.225 26.0749C77.8169 26.8238 79.1681 28.0022 80.1265 29.4774C81.085 30.9526 81.6126 32.6661 81.65 34.4249C81.6138 36.0948 81.1309 37.7245 80.2516 39.1446C79.3723 40.5646 78.1287 41.7232 76.65 42.4999L76.125 42.7999C75.8853 42.9509 75.6183 43.0533 75.3391 43.1011C75.0599 43.1489 74.774 43.1412 74.4977 43.0786C74.2215 43.0159 73.9602 42.8994 73.729 42.7358C73.4978 42.5722 73.301 42.3646 73.15 42.1249C72.999 41.8853 72.8966 41.6182 72.8488 41.339C72.801 41.0598 72.8087 40.7739 72.8714 40.4976C72.934 40.2214 73.0505 39.9602 73.2141 39.7289C73.3778 39.4977 73.5853 39.3009 73.825 39.1499C74.7433 38.7606 75.5331 38.12 76.1036 37.3019C76.6741 36.4837 77.0021 35.5212 77.05 34.5249C77.0031 33.5413 76.6805 32.5908 76.1191 31.7818C75.5576 30.9728 74.78 30.338 73.875 29.9499C72.2947 29.2548 70.9433 28.1268 69.9769 26.6962C69.0105 25.2657 68.4686 23.5909 68.4137 21.8653C68.3588 20.1398 68.7932 18.434 69.6667 16.9448C70.5401 15.4557 71.8171 14.2441 73.35 13.4499L73.875 13.1749C74.3791 12.9105 74.9674 12.8568 75.511 13.0255C76.0547 13.1942 76.5092 13.5716 76.775 14.0749L77.1 13.9749ZM59.8 13.9749C60.0663 14.476 60.1238 15.062 59.9599 15.6052C59.796 16.1484 59.424 16.6048 58.925 16.8749C58.0231 17.2592 57.254 17.9001 56.7134 18.7179C56.1728 19.5358 55.8846 20.4945 55.8846 21.4749C55.8846 22.4553 56.1728 23.414 56.7134 24.2319C57.254 25.0498 58.0231 25.6907 58.925 26.0749C60.5169 26.8238 61.8681 28.0022 62.8265 29.4774C63.785 30.9526 64.3126 32.6661 64.35 34.4249C64.3217 36.0966 63.8422 37.7295 62.962 39.151C62.0819 40.5724 60.8338 41.7296 59.35 42.4999L58.825 42.7999C58.5821 42.946 58.3127 43.0428 58.0323 43.0848C57.752 43.1268 57.4661 43.1132 57.191 43.0447C56.9159 42.9762 56.657 42.8542 56.4291 42.6857C56.2011 42.5172 56.0086 42.3054 55.8625 42.0624C55.7164 41.8195 55.6196 41.5501 55.5776 41.2698C55.5356 40.9894 55.5492 40.7035 55.6177 40.4284C55.6862 40.1533 55.8082 39.8944 55.9767 39.6665C56.1453 39.4385 56.3571 39.246 56.6 39.0999C57.562 38.7389 58.397 38.1035 59.0014 37.2725C59.6057 36.4415 59.953 35.4514 60 34.4249C59.959 33.4398 59.6387 32.4866 59.0765 31.6766C58.5144 30.8666 57.7335 30.233 56.825 29.8499C55.2034 29.1217 53.8252 27.9427 52.8546 26.4535C51.8839 24.9643 51.3617 23.2275 51.35 21.4499C51.3601 19.771 51.8319 18.1272 52.7138 16.6986C53.5957 15.2699 54.8537 14.1114 56.35 13.3499L56.875 13.0749C57.3791 12.8105 57.9674 12.7568 58.511 12.9255C59.0547 13.0942 59.5092 13.4716 59.775 13.9749H59.8Z"/>
</mask>
<path d="M36.4 50.5749C37.0193 50.5716 37.6332 50.6908 38.2063 50.9255C38.7794 51.1602 39.3005 51.5059 39.7396 51.9427C40.1787 52.3794 40.5271 52.8986 40.7649 53.4705C41.0026 54.0424 41.125 54.6556 41.125 55.2749V71.7999H50.575V55.2749C50.575 54.0284 51.0702 52.8329 51.9516 51.9515C52.833 51.0701 54.0285 50.5749 55.275 50.5749H64.725C65.9715 50.5749 67.167 51.0701 68.0484 51.9515C68.9298 52.8329 69.425 54.0284 69.425 55.2749V71.7999H78.875V55.2749C78.875 54.6556 78.9974 54.0424 79.2351 53.4705C79.4729 52.8986 79.8213 52.3794 80.2604 51.9427C80.6995 51.5059 81.2206 51.1602 81.7937 50.9255C82.3668 50.6908 82.9807 50.5716 83.6 50.5749H93.025C94.2738 50.5749 95.4719 51.0693 96.3573 51.95C97.2427 52.8307 97.7434 54.0261 97.75 55.2749V71.7999H100C100.331 71.7659 100.665 71.8016 100.981 71.9048C101.297 72.008 101.588 72.1764 101.834 72.3991C102.081 72.6218 102.278 72.8938 102.414 73.1975C102.549 73.5013 102.618 73.83 102.618 74.1624C102.618 74.4948 102.549 74.8235 102.414 75.1273C102.278 75.431 102.081 75.7031 101.834 75.9257C101.588 76.1484 101.297 76.3168 100.981 76.42C100.665 76.5232 100.331 76.559 100 76.5249H97.75V102.5C97.75 103.753 97.2522 104.955 96.3661 105.841C95.48 106.727 94.2781 107.225 93.025 107.225H83.6C82.9786 107.228 82.3627 107.108 81.7879 106.872C81.2132 106.636 80.6909 106.288 80.2515 105.848C79.8121 105.409 79.4642 104.887 79.2279 104.312C78.9916 103.737 78.8717 103.121 78.875 102.5V76.5249H69.425V102.5C69.4283 103.119 69.3092 103.733 69.0744 104.306C68.8397 104.879 68.494 105.4 68.0573 105.839C67.6205 106.279 67.1013 106.627 66.5294 106.865C65.9575 107.103 65.3443 107.225 64.725 107.225H55.275C54.6557 107.225 54.0425 107.103 53.4706 106.865C52.8987 106.627 52.3795 106.279 51.9427 105.839C51.506 105.4 51.1603 104.879 50.9256 104.306C50.6908 103.733 50.5717 103.119 50.575 102.5V76.5249H41.125V102.5C41.1283 103.121 41.0084 103.737 40.7721 104.312C40.5358 104.887 40.1879 105.409 39.7485 105.848C39.309 106.288 38.7869 106.636 38.2121 106.872C37.6373 107.108 37.0214 107.228 36.4 107.225H26.975C25.7219 107.225 24.52 106.727 23.6339 105.841C22.7478 104.955 22.25 103.753 22.25 102.5V76.5249H20C19.3581 76.5257 18.7404 76.2796 18.275 75.8374C17.8096 75.3953 17.5321 74.7911 17.5 74.1499C17.5383 73.5132 17.8185 72.9152 18.2832 72.4783C18.748 72.0415 19.3621 71.7988 20 71.7999H22.25V55.2749C22.2566 54.0261 22.7573 52.8307 23.6427 51.95C24.5281 51.0693 25.7262 50.5749 26.975 50.5749H36.4ZM34.05 55.2749H29.325C28.7093 55.3112 28.1288 55.5738 27.695 56.0122C27.2612 56.4506 27.0048 57.0339 26.975 57.6499V99.9999C26.975 100.623 27.2226 101.221 27.6633 101.662C28.104 102.102 28.7017 102.35 29.325 102.35H34.05C34.6733 102.35 35.271 102.102 35.7117 101.662C36.1524 101.221 36.4 100.623 36.4 99.9999V57.4999C36.3357 56.9107 36.064 56.3634 35.6336 55.9559C35.2032 55.5483 34.6419 55.307 34.05 55.2749ZM62.35 55.2749H57.65C57.0299 55.3052 56.4433 55.5652 56.0043 56.0042C55.5653 56.4432 55.3053 57.0298 55.275 57.6499V99.9999C55.3113 100.616 55.5739 101.196 56.0123 101.63C56.4507 102.064 57.034 102.32 57.65 102.35H62.35C62.966 102.32 63.5493 102.064 63.9877 101.63C64.4261 101.196 64.6887 100.616 64.725 99.9999V57.4999C64.6599 56.9066 64.3847 56.3561 63.9491 55.9481C63.5135 55.54 62.9463 55.3012 62.35 55.2749ZM90.675 55.2749H85.95C85.3343 55.3112 84.7538 55.5738 84.32 56.0122C83.8862 56.4506 83.6298 57.0339 83.6 57.6499V99.9999C83.6 100.623 83.8476 101.221 84.2883 101.662C84.729 102.102 85.3267 102.35 85.95 102.35H90.675C91.2983 102.35 91.896 102.102 92.3367 101.662C92.7774 101.221 93.025 100.623 93.025 99.9999V57.4999C92.9607 56.9107 92.689 56.3634 92.2586 55.9559C91.8282 55.5483 91.2669 55.307 90.675 55.2749ZM42.5 13.9749C42.7663 14.476 42.8238 15.062 42.6599 15.6052C42.496 16.1484 42.124 16.6048 41.625 16.8749C40.7231 17.2592 39.954 17.9001 39.4134 18.7179C38.8728 19.5358 38.5846 20.4945 38.5846 21.4749C38.5846 22.4553 38.8728 23.414 39.4134 24.2319C39.954 25.0498 40.7231 25.6907 41.625 26.0749C43.2169 26.8238 44.5681 28.0022 45.5265 29.4774C46.485 30.9526 47.0126 32.6661 47.05 34.4249C47.0217 36.0966 46.5422 37.7295 45.662 39.151C44.7819 40.5724 43.5338 41.7296 42.05 42.4999L41.525 42.7999C41.2853 42.9509 41.0183 43.0533 40.7391 43.1011C40.4599 43.1489 40.174 43.1412 39.8977 43.0786C39.6214 43.0159 39.3602 42.8994 39.129 42.7358C38.8978 42.5722 38.701 42.3646 38.55 42.1249C38.399 41.8853 38.2966 41.6182 38.2488 41.339C38.201 41.0598 38.2087 40.7739 38.2714 40.4976C38.334 40.2214 38.4505 39.9602 38.6141 39.7289C38.7778 39.4977 38.9853 39.3009 39.225 39.1499C40.1468 38.7656 40.9398 38.1263 41.5111 37.3071C42.0823 36.4879 42.408 35.5227 42.45 34.5249C42.409 33.5398 42.0887 32.5866 41.5265 31.7766C40.9644 30.9666 40.1835 30.333 39.275 29.9499C37.6515 29.2242 36.2716 28.0459 35.3006 26.5561C34.3296 25.0663 33.8086 23.3282 33.8 21.5499C33.809 19.8741 34.2807 18.2332 35.163 16.8084C36.0452 15.3835 37.3038 14.23 38.8 13.4749L39.325 13.1749C39.5786 12.9943 39.8685 12.871 40.1745 12.8134C40.4805 12.7559 40.7954 12.7655 41.0973 12.8415C41.3992 12.9176 41.681 13.0584 41.9232 13.2541C42.1654 13.4497 42.3622 13.6957 42.5 13.9749ZM77.1 13.9749C77.3663 14.476 77.4238 15.062 77.2599 15.6052C77.096 16.1484 76.724 16.6048 76.225 16.8749C75.3231 17.2592 74.554 17.9001 74.0134 18.7179C73.4728 19.5358 73.1846 20.4945 73.1846 21.4749C73.1846 22.4553 73.4728 23.414 74.0134 24.2319C74.554 25.0498 75.3231 25.6907 76.225 26.0749C77.8169 26.8238 79.1681 28.0022 80.1265 29.4774C81.085 30.9526 81.6126 32.6661 81.65 34.4249C81.6138 36.0948 81.1309 37.7245 80.2516 39.1446C79.3723 40.5646 78.1287 41.7232 76.65 42.4999L76.125 42.7999C75.8853 42.9509 75.6183 43.0533 75.3391 43.1011C75.0599 43.1489 74.774 43.1412 74.4977 43.0786C74.2215 43.0159 73.9602 42.8994 73.729 42.7358C73.4978 42.5722 73.301 42.3646 73.15 42.1249C72.999 41.8853 72.8966 41.6182 72.8488 41.339C72.801 41.0598 72.8087 40.7739 72.8714 40.4976C72.934 40.2214 73.0505 39.9602 73.2141 39.7289C73.3778 39.4977 73.5853 39.3009 73.825 39.1499C74.7433 38.7606 75.5331 38.12 76.1036 37.3019C76.6741 36.4837 77.0021 35.5212 77.05 34.5249C77.0031 33.5413 76.6805 32.5908 76.1191 31.7818C75.5576 30.9728 74.78 30.338 73.875 29.9499C72.2947 29.2548 70.9433 28.1268 69.9769 26.6962C69.0105 25.2657 68.4686 23.5909 68.4137 21.8653C68.3588 20.1398 68.7932 18.434 69.6667 16.9448C70.5401 15.4557 71.8171 14.2441 73.35 13.4499L73.875 13.1749C74.3791 12.9105 74.9674 12.8568 75.511 13.0255C76.0547 13.1942 76.5092 13.5716 76.775 14.0749L77.1 13.9749ZM59.8 13.9749C60.0663 14.476 60.1238 15.062 59.9599 15.6052C59.796 16.1484 59.424 16.6048 58.925 16.8749C58.0231 17.2592 57.254 17.9001 56.7134 18.7179C56.1728 19.5358 55.8846 20.4945 55.8846 21.4749C55.8846 22.4553 56.1728 23.414 56.7134 24.2319C57.254 25.0498 58.0231 25.6907 58.925 26.0749C60.5169 26.8238 61.8681 28.0022 62.8265 29.4774C63.785 30.9526 64.3126 32.6661 64.35 34.4249C64.3217 36.0966 63.8422 37.7295 62.962 39.151C62.0819 40.5724 60.8338 41.7296 59.35 42.4999L58.825 42.7999C58.5821 42.946 58.3127 43.0428 58.0323 43.0848C57.752 43.1268 57.4661 43.1132 57.191 43.0447C56.9159 42.9762 56.657 42.8542 56.4291 42.6857C56.2011 42.5172 56.0086 42.3054 55.8625 42.0624C55.7164 41.8195 55.6196 41.5501 55.5776 41.2698C55.5356 40.9894 55.5492 40.7035 55.6177 40.4284C55.6862 40.1533 55.8082 39.8944 55.9767 39.6665C56.1453 39.4385 56.3571 39.246 56.6 39.0999C57.562 38.7389 58.397 38.1035 59.0014 37.2725C59.6057 36.4415 59.953 35.4514 60 34.4249C59.959 33.4398 59.6387 32.4866 59.0765 31.6766C58.5144 30.8666 57.7335 30.233 56.825 29.8499C55.2034 29.1217 53.8252 27.9427 52.8546 26.4535C51.8839 24.9643 51.3617 23.2275 51.35 21.4499C51.3601 19.771 51.8319 18.1272 52.7138 16.6986C53.5957 15.2699 54.8537 14.1114 56.35 13.3499L56.875 13.0749C57.3791 12.8105 57.9674 12.7568 58.511 12.9255C59.0547 13.0942 59.5092 13.4716 59.775 13.9749H59.8Z" fill="black" stroke="#F3F8FC" stroke-width="2" mask="url(#path-1-inside-1_1_1003)"/>
</svg>
