<svg width="120" height="120" viewBox="0 0 120 120" fill="none" xmlns="http://www.w3.org/2000/svg">
<mask id="path-1-inside-1_1_964" fill="white">
<path d="M18.662 23.9016L17.9847 27.8063C17.7855 29.0016 19.0804 29.9578 20.1562 29.3801L23.6624 27.5473L27.1687 29.3801C28.2444 29.9379 29.5394 29.0016 29.3401 27.8063L28.6628 23.9016L31.5116 21.1523C31.93 20.7539 32.0694 20.1562 31.8901 19.6184C31.7109 19.0805 31.2526 18.682 30.6749 18.6023L26.7702 18.0246L25.0171 14.4785C24.4792 13.3828 22.8655 13.3828 22.3276 14.4785L20.5745 18.0246L16.6698 18.6023C15.4745 18.7816 14.9765 20.3156 15.8331 21.1523L18.662 23.9016ZM21.7898 20.8734C22.2679 20.7937 22.7062 20.4949 22.9253 20.0566L23.6823 18.5227L24.4394 20.0566C24.6585 20.4949 25.0769 20.8137 25.5749 20.8734L27.2683 21.1125L26.053 22.3078C25.6944 22.6465 25.5351 23.1445 25.6148 23.6426L25.8937 25.3359L24.3796 24.5391C24.1605 24.4195 23.9214 24.3598 23.6823 24.3598C23.4433 24.3598 23.2042 24.4195 22.9851 24.5391L21.471 25.3359L21.7499 23.6426C21.8296 23.1645 21.6702 22.6664 21.3116 22.3078L20.0964 21.1125L21.7898 20.8734ZM43.7237 48.7043L43.0464 44.7996L45.8753 42.0305C46.7519 41.1738 46.2538 39.6598 45.0386 39.4805L41.1339 38.9027L39.3808 35.3566C38.8429 34.2609 37.2292 34.2609 36.6913 35.3566L34.9382 38.9027L31.0335 39.4805C29.8382 39.6598 29.3401 41.1938 30.1968 42.0305L33.0257 44.7996L32.3484 48.7043C32.1491 49.8996 33.4441 50.8559 34.5198 50.2781L38.0261 48.4453L41.5323 50.2781C42.628 50.8559 43.923 49.8996 43.7237 48.7043ZM40.3968 43.2258C40.0382 43.5645 39.8788 44.0625 39.9585 44.5605L40.2573 46.2539L38.7433 45.457C38.5241 45.3375 38.2851 45.2777 38.046 45.2777C37.8069 45.2777 37.5679 45.3375 37.3487 45.457L35.8347 46.2539L36.1136 44.5605C36.1933 44.0824 36.0339 43.5844 35.6753 43.2258L34.4601 42.0305L36.1534 41.7914C36.6316 41.7117 37.0698 41.4129 37.289 40.9746L38.046 39.4406L38.803 40.9746C39.0222 41.4129 39.4405 41.7316 39.9386 41.7914L41.6319 42.0305L40.3968 43.2258ZM26.3718 71.0566C27.4476 71.6145 28.7425 70.6781 28.5433 69.4828L27.8659 65.5781L30.6948 62.809C31.5714 61.9523 31.0734 60.4383 29.8581 60.259L25.9534 59.6812L24.2003 56.1352C23.6624 55.0395 22.0487 55.0395 21.5109 56.1352L19.7577 59.6812L15.853 60.259C14.6577 60.4383 14.1597 61.9723 15.0163 62.809L17.8651 65.5781L17.1878 69.4828C17.0882 70.0406 17.3273 70.6184 17.7855 70.9371C18.2437 71.2758 18.8612 71.3156 19.3593 71.0566L22.8655 69.2238L26.3718 71.0566ZM20.6542 66.9926L20.9331 65.2992C21.0128 64.8211 20.8534 64.323 20.4948 63.9645L19.2796 62.7691L20.973 62.5301C21.4511 62.4504 21.8894 62.1516 22.1085 61.7133L22.8655 60.1793L23.6226 61.7133C23.8417 62.1516 24.2601 62.4703 24.7581 62.5301L26.4515 62.7691L25.2362 63.9645C24.8776 64.3031 24.7183 64.8012 24.798 65.2992L25.0769 66.9926L23.5628 66.1957C23.1245 65.9566 22.6066 65.9566 22.1683 66.1957L20.6542 66.9926ZM55.1191 80.6391C56.1948 81.1969 57.4898 80.2606 57.2905 79.0652L56.6132 75.1605L59.4421 72.3914C60.3187 71.5348 59.8206 70.0207 58.6054 69.8414L54.7007 69.2637L52.9476 65.7176C52.4097 64.6219 50.796 64.6219 50.2581 65.7176L48.505 69.2637L44.6003 69.8414C43.405 70.0207 42.9069 71.5547 43.7636 72.3914L46.5925 75.1605L45.9151 79.0652C45.7159 80.2606 47.0108 81.2168 48.0866 80.6391L51.5929 78.8063L55.1191 80.6391ZM49.4015 76.575L49.6804 74.8816C49.7601 74.4035 49.6007 73.9055 49.2421 73.5469L48.0269 72.3516L49.7202 72.1125C50.1983 72.0328 50.6366 71.734 50.8558 71.2957L51.6128 69.7617L52.3698 71.2957C52.589 71.734 53.0073 72.0527 53.5054 72.1125L55.1987 72.3516L53.9835 73.5469C53.6249 73.8855 53.4655 74.3836 53.5452 74.8816L53.8241 76.575L52.3101 75.7781C51.8718 75.5391 51.3538 75.5391 50.9155 75.7781L49.4015 76.575ZM36.253 90.6L32.3484 90.0223L30.5952 86.4762C30.0573 85.3805 28.4437 85.3805 27.9058 86.4762L26.1526 90.0223L22.248 90.6C21.0526 90.7793 20.5546 92.3133 21.4112 93.15L24.2401 95.9191L23.5628 99.8238C23.3636 101.019 24.6585 101.975 25.7343 101.398L29.2405 99.5648L32.7468 101.398C33.8226 101.955 35.1175 101.019 34.9183 99.8238L34.2409 95.9191L37.0698 93.15C37.4683 92.7516 37.6276 92.1539 37.4484 91.616C37.289 91.0781 36.8308 90.6797 36.253 90.6ZM31.6112 94.3254C31.2526 94.6641 31.0933 95.1621 31.173 95.6602L31.4519 97.3535L29.9378 96.5566C29.4995 96.3176 28.9816 96.3176 28.5433 96.5566L27.0292 97.3535L27.3081 95.6602C27.3878 95.182 27.2284 94.684 26.8698 94.3254L25.6546 93.1301L27.348 92.891C27.8261 92.8113 28.2644 92.5125 28.4835 92.0742L29.2405 90.5402L29.9976 92.0742C30.2167 92.5125 30.6351 92.8313 31.1331 92.891L32.8265 93.1301L31.6112 94.3254Z"/>
</mask>
<path d="M18.662 23.9016L17.9847 27.8063C17.7855 29.0016 19.0804 29.9578 20.1562 29.3801L23.6624 27.5473L27.1687 29.3801C28.2444 29.9379 29.5394 29.0016 29.3401 27.8063L28.6628 23.9016L31.5116 21.1523C31.93 20.7539 32.0694 20.1562 31.8901 19.6184C31.7109 19.0805 31.2526 18.682 30.6749 18.6023L26.7702 18.0246L25.0171 14.4785C24.4792 13.3828 22.8655 13.3828 22.3276 14.4785L20.5745 18.0246L16.6698 18.6023C15.4745 18.7816 14.9765 20.3156 15.8331 21.1523L18.662 23.9016ZM21.7898 20.8734C22.2679 20.7937 22.7062 20.4949 22.9253 20.0566L23.6823 18.5227L24.4394 20.0566C24.6585 20.4949 25.0769 20.8137 25.5749 20.8734L27.2683 21.1125L26.053 22.3078C25.6944 22.6465 25.5351 23.1445 25.6148 23.6426L25.8937 25.3359L24.3796 24.5391C24.1605 24.4195 23.9214 24.3598 23.6823 24.3598C23.4433 24.3598 23.2042 24.4195 22.9851 24.5391L21.471 25.3359L21.7499 23.6426C21.8296 23.1645 21.6702 22.6664 21.3116 22.3078L20.0964 21.1125L21.7898 20.8734ZM43.7237 48.7043L43.0464 44.7996L45.8753 42.0305C46.7519 41.1738 46.2538 39.6598 45.0386 39.4805L41.1339 38.9027L39.3808 35.3566C38.8429 34.2609 37.2292 34.2609 36.6913 35.3566L34.9382 38.9027L31.0335 39.4805C29.8382 39.6598 29.3401 41.1938 30.1968 42.0305L33.0257 44.7996L32.3484 48.7043C32.1491 49.8996 33.4441 50.8559 34.5198 50.2781L38.0261 48.4453L41.5323 50.2781C42.628 50.8559 43.923 49.8996 43.7237 48.7043ZM40.3968 43.2258C40.0382 43.5645 39.8788 44.0625 39.9585 44.5605L40.2573 46.2539L38.7433 45.457C38.5241 45.3375 38.2851 45.2777 38.046 45.2777C37.8069 45.2777 37.5679 45.3375 37.3487 45.457L35.8347 46.2539L36.1136 44.5605C36.1933 44.0824 36.0339 43.5844 35.6753 43.2258L34.4601 42.0305L36.1534 41.7914C36.6316 41.7117 37.0698 41.4129 37.289 40.9746L38.046 39.4406L38.803 40.9746C39.0222 41.4129 39.4405 41.7316 39.9386 41.7914L41.6319 42.0305L40.3968 43.2258ZM26.3718 71.0566C27.4476 71.6145 28.7425 70.6781 28.5433 69.4828L27.8659 65.5781L30.6948 62.809C31.5714 61.9523 31.0734 60.4383 29.8581 60.259L25.9534 59.6812L24.2003 56.1352C23.6624 55.0395 22.0487 55.0395 21.5109 56.1352L19.7577 59.6812L15.853 60.259C14.6577 60.4383 14.1597 61.9723 15.0163 62.809L17.8651 65.5781L17.1878 69.4828C17.0882 70.0406 17.3273 70.6184 17.7855 70.9371C18.2437 71.2758 18.8612 71.3156 19.3593 71.0566L22.8655 69.2238L26.3718 71.0566ZM20.6542 66.9926L20.9331 65.2992C21.0128 64.8211 20.8534 64.323 20.4948 63.9645L19.2796 62.7691L20.973 62.5301C21.4511 62.4504 21.8894 62.1516 22.1085 61.7133L22.8655 60.1793L23.6226 61.7133C23.8417 62.1516 24.2601 62.4703 24.7581 62.5301L26.4515 62.7691L25.2362 63.9645C24.8776 64.3031 24.7183 64.8012 24.798 65.2992L25.0769 66.9926L23.5628 66.1957C23.1245 65.9566 22.6066 65.9566 22.1683 66.1957L20.6542 66.9926ZM55.1191 80.6391C56.1948 81.1969 57.4898 80.2606 57.2905 79.0652L56.6132 75.1605L59.4421 72.3914C60.3187 71.5348 59.8206 70.0207 58.6054 69.8414L54.7007 69.2637L52.9476 65.7176C52.4097 64.6219 50.796 64.6219 50.2581 65.7176L48.505 69.2637L44.6003 69.8414C43.405 70.0207 42.9069 71.5547 43.7636 72.3914L46.5925 75.1605L45.9151 79.0652C45.7159 80.2606 47.0108 81.2168 48.0866 80.6391L51.5929 78.8063L55.1191 80.6391ZM49.4015 76.575L49.6804 74.8816C49.7601 74.4035 49.6007 73.9055 49.2421 73.5469L48.0269 72.3516L49.7202 72.1125C50.1983 72.0328 50.6366 71.734 50.8558 71.2957L51.6128 69.7617L52.3698 71.2957C52.589 71.734 53.0073 72.0527 53.5054 72.1125L55.1987 72.3516L53.9835 73.5469C53.6249 73.8855 53.4655 74.3836 53.5452 74.8816L53.8241 76.575L52.3101 75.7781C51.8718 75.5391 51.3538 75.5391 50.9155 75.7781L49.4015 76.575ZM36.253 90.6L32.3484 90.0223L30.5952 86.4762C30.0573 85.3805 28.4437 85.3805 27.9058 86.4762L26.1526 90.0223L22.248 90.6C21.0526 90.7793 20.5546 92.3133 21.4112 93.15L24.2401 95.9191L23.5628 99.8238C23.3636 101.019 24.6585 101.975 25.7343 101.398L29.2405 99.5648L32.7468 101.398C33.8226 101.955 35.1175 101.019 34.9183 99.8238L34.2409 95.9191L37.0698 93.15C37.4683 92.7516 37.6276 92.1539 37.4484 91.616C37.289 91.0781 36.8308 90.6797 36.253 90.6ZM31.6112 94.3254C31.2526 94.6641 31.0933 95.1621 31.173 95.6602L31.4519 97.3535L29.9378 96.5566C29.4995 96.3176 28.9816 96.3176 28.5433 96.5566L27.0292 97.3535L27.3081 95.6602C27.3878 95.182 27.2284 94.684 26.8698 94.3254L25.6546 93.1301L27.348 92.891C27.8261 92.8113 28.2644 92.5125 28.4835 92.0742L29.2405 90.5402L29.9976 92.0742C30.2167 92.5125 30.6351 92.8313 31.1331 92.891L32.8265 93.1301L31.6112 94.3254Z" fill="black" stroke="#F3F8FC" stroke-width="0.6" mask="url(#path-1-inside-1_1_964)"/>
<path d="M91.9348 53.7047H53.5055V10.4941C53.5055 9.65742 52.8281 9 52.0113 9H10.4941C9.67734 9 9 9.67734 9 10.4941V109.506C9 110.343 9.67734 111 10.4941 111H48.0867H61.5141H91.9348C92.7715 111 93.4289 110.323 93.4289 109.506V91.7754C103.25 91.0184 111 82.7707 111 72.7699C111 62.2711 102.454 53.7047 91.9348 53.7047ZM90.4207 108.012H61.5141H48.0867H11.9883V11.9883H50.5172V55.2188C50.5172 56.0355 51.1945 56.7129 52.0113 56.7129C60.8766 56.7129 68.0883 63.9246 68.0883 72.7898C68.0883 81.6551 60.8766 88.8668 52.0113 88.8668C51.1945 88.8668 50.5172 89.5441 50.5172 90.3609C50.5172 91.1977 51.1945 91.8551 52.0113 91.8551H77.5L73.3477 92.0742C72.1523 92.2535 71.6543 93.7875 72.5109 94.6242L75.3398 97.3934L74.6625 101.298C74.4633 102.493 75.7582 103.45 76.834 102.872L80.3402 101.039L83.8465 102.872C84.9223 103.43 86.2172 102.493 86.018 101.298L85.3406 97.3934L88.1695 94.6242C89.0461 93.7676 88.548 92.2535 87.3328 92.0742L83.5 91.8551H90.4207V108.012ZM82.2727 97.0945L82.5516 98.7879L81.0375 97.991C80.8184 97.8715 80.5793 97.8117 80.3402 97.8117C80.1012 97.8117 79.8621 97.8715 79.643 97.991L78.1289 98.7879L78.4277 97.0945C78.5074 96.6164 78.348 96.1184 77.9894 95.7598L76.7742 94.5645L78.4676 94.3254C78.9457 94.2457 79.384 93.9469 79.6031 93.5086L80.3602 91.9746L81.1172 93.5086C81.3363 93.9469 81.7547 94.2656 82.2527 94.3254L83.9461 94.5645L82.7309 95.7598C82.3523 96.1184 82.193 96.6164 82.2727 97.0945ZM91.9348 88.8469H62.2512C67.5504 85.4602 71.0766 79.5234 71.0766 72.7699C71.0766 66.0164 67.5504 60.0996 62.2512 56.693H91.9348C100.8 56.693 108.012 63.9047 108.012 72.7699C108.012 81.6352 100.8 88.8469 91.9348 88.8469Z" fill="black"/>
<path d="M91.9348 53.7047H53.5055V10.4941C53.5055 9.65742 52.8281 9 52.0113 9H10.4941C9.67734 9 9 9.67734 9 10.4941V109.506C9 110.343 9.67734 111 10.4941 111H48.0867H61.5141H91.9348C92.7715 111 93.4289 110.323 93.4289 109.506V91.7754C103.25 91.0184 111 82.7707 111 72.7699C111 62.2711 102.454 53.7047 91.9348 53.7047ZM90.4207 108.012H61.5141H48.0867H11.9883V11.9883H50.5172V55.2188C50.5172 56.0355 51.1945 56.7129 52.0113 56.7129C60.8766 56.7129 68.0883 63.9246 68.0883 72.7898C68.0883 81.6551 60.8766 88.8668 52.0113 88.8668C51.1945 88.8668 50.5172 89.5441 50.5172 90.3609C50.5172 91.1977 51.1945 91.8551 52.0113 91.8551H77.5L73.3477 92.0742C72.1523 92.2535 71.6543 93.7875 72.5109 94.6242L75.3398 97.3934L74.6625 101.298C74.4633 102.493 75.7582 103.45 76.834 102.872L80.3402 101.039L83.8465 102.872C84.9223 103.43 86.2172 102.493 86.018 101.298L85.3406 97.3934L88.1695 94.6242C89.0461 93.7676 88.548 92.2535 87.3328 92.0742L83.5 91.8551H90.4207V108.012ZM82.2727 97.0945L82.5516 98.7879L81.0375 97.991C80.8184 97.8715 80.5793 97.8117 80.3402 97.8117C80.1012 97.8117 79.8621 97.8715 79.643 97.991L78.1289 98.7879L78.4277 97.0945C78.5074 96.6164 78.348 96.1184 77.9894 95.7598L76.7742 94.5645L78.4676 94.3254C78.9457 94.2457 79.384 93.9469 79.6031 93.5086L80.3602 91.9746L81.1172 93.5086C81.3363 93.9469 81.7547 94.2656 82.2527 94.3254L83.9461 94.5645L82.7309 95.7598C82.3523 96.1184 82.193 96.6164 82.2727 97.0945ZM91.9348 88.8469H62.2512C67.5504 85.4602 71.0766 79.5234 71.0766 72.7699C71.0766 66.0164 67.5504 60.0996 62.2512 56.693H91.9348C100.8 56.693 108.012 63.9047 108.012 72.7699C108.012 81.6352 100.8 88.8469 91.9348 88.8469Z" stroke="#F3F8FC"/>
</svg>
