<svg width="120" height="120" viewBox="0 0 120 120" fill="none" xmlns="http://www.w3.org/2000/svg">
<path d="M26.25 95.625H59.0625C59.25 95.8125 59.625 95.8125 60 95.8125C60.375 95.8125 60.5625 95.625 60.9375 95.625H93.75C94.875 95.625 95.625 94.875 95.625 93.75V26.25C95.625 25.125 94.875 24.375 93.75 24.375H26.25C25.125 24.375 24.375 25.125 24.375 26.25V93.75C24.375 94.875 25.125 95.625 26.25 95.625ZM61.875 28.125H91.875V91.875H61.875V28.125ZM28.125 28.125H58.125V91.875H28.125V28.125Z" fill="#231F20"/>
<path d="M69.5625 63.75L88.3125 45C89.0625 44.25 89.0625 43.125 88.3125 42.375C87.5625 41.625 86.4375 41.625 85.6875 42.375L66.9375 61.125C66.1875 61.875 66.1875 63 66.9375 63.75C67.3125 64.125 67.875 64.3125 68.25 64.3125C68.625 64.3125 69.1875 64.125 69.5625 63.75ZM86.8125 56.25L68.0625 75C67.3125 75.75 67.3125 76.875 68.0625 77.625C68.4375 78 69 78.1875 69.375 78.1875C69.75 78.1875 70.3125 78 70.6875 77.625L89.4375 58.875C90.1875 58.125 90.1875 57 89.4375 56.25C88.6875 55.5 87.5625 55.5 86.8125 56.25ZM33.9375 63.75L52.6875 45C53.4375 44.25 53.4375 43.125 52.6875 42.375C51.9375 41.625 50.8125 41.625 50.0625 42.375L31.3125 61.125C30.5625 61.875 30.5625 63 31.3125 63.75C31.6875 64.125 32.25 64.3125 32.625 64.3125C33 64.3125 33.5625 64.125 33.9375 63.75ZM51.1875 56.25L32.4375 75C31.6875 75.75 31.6875 76.875 32.4375 77.625C32.8125 78 33.375 78.1875 33.75 78.1875C34.125 78.1875 34.6875 78 35.0625 77.625L53.8125 58.875C54.5625 58.125 54.5625 57 53.8125 56.25C53.0625 55.5 51.9375 55.5 51.1875 56.25Z" fill="#231F20"/>
<path d="M105 99.375H103.125V20.625H105C108.188 20.625 110.625 18.1875 110.625 15C110.625 11.8125 108.188 9.375 105 9.375H15C11.8125 9.375 9.375 11.8125 9.375 15C9.375 18.1875 11.8125 20.625 15 20.625H16.875V99.375H15C11.8125 99.375 9.375 101.812 9.375 105C9.375 108.188 11.8125 110.625 15 110.625H105C108.188 110.625 110.625 108.188 110.625 105C110.625 101.812 108.188 99.375 105 99.375ZM15 16.875C13.875 16.875 13.125 16.125 13.125 15C13.125 13.875 13.875 13.125 15 13.125H105C106.125 13.125 106.875 13.875 106.875 15C106.875 16.125 106.125 16.875 105 16.875H101.25H18.75H15ZM99.375 20.625V99.375H20.625V20.625H99.375ZM105 106.875H15C13.875 106.875 13.125 106.125 13.125 105C13.125 103.875 13.875 103.125 15 103.125H18.75H101.25H105C106.125 103.125 106.875 103.875 106.875 105C106.875 106.125 106.125 106.875 105 106.875Z" fill="#231F20"/>
</svg>
