<svg width="42" height="42" viewBox="0 0 42 42" fill="none" xmlns="http://www.w3.org/2000/svg">
<path d="M31.5543 29.0798L39.0495 36.5732L36.5732 39.0495L29.0798 31.5543C26.2915 33.7894 22.8235 35.0051 19.25 35C10.556 35 3.5 27.944 3.5 19.25C3.5 10.556 10.556 3.5 19.25 3.5C27.944 3.5 35 10.556 35 19.25C35.0051 22.8235 33.7894 26.2915 31.5543 29.0798ZM28.0437 27.7812C30.2647 25.4973 31.505 22.4358 31.5 19.25C31.5 12.481 26.0173 7 19.25 7C12.481 7 7 12.481 7 19.25C7 26.0173 12.481 31.5 19.25 31.5C22.4358 31.505 25.4973 30.2647 27.7812 28.0437L28.0437 27.7812ZM21.3115 12.558C20.7955 12.7911 20.3437 13.1459 19.995 13.592C19.6462 14.0381 19.4109 14.5621 19.3092 15.1191C19.2075 15.6762 19.2425 16.2495 19.4112 16.7901C19.5798 17.3306 19.8771 17.8222 20.2775 18.2225C20.6778 18.6229 21.1694 18.9202 21.7099 19.0888C22.2505 19.2575 22.8238 19.2925 23.3809 19.1908C23.9379 19.0891 24.4619 18.8538 24.908 18.505C25.3541 18.1563 25.7089 17.7045 25.942 17.1885C26.4019 18.6823 26.3486 20.2871 25.7906 21.7472C25.2326 23.2072 24.202 24.4385 22.863 25.2448C21.524 26.0511 19.9536 26.3861 18.4022 26.1964C16.8507 26.0066 15.4073 25.3031 14.3021 24.1979C13.1969 23.0927 12.4934 21.6493 12.3036 20.0978C12.1139 18.5464 12.4489 16.976 13.2552 15.637C14.0615 14.298 15.2928 13.2674 16.7528 12.7094C18.2129 12.1514 19.8177 12.0981 21.3115 12.558Z" fill="white"/>
</svg>
