<svg width="42" height="42" viewBox="0 0 42 42" fill="none" xmlns="http://www.w3.org/2000/svg">
<path d="M23 26.0629H19.2353V27.9014H28.6471V32.6157H19.2353V37H9.82353V32.6157H7V27.9014H9.82353V26.0629H7V17.5771H9.82353V4H23C26.4196 4 29.2745 4.99 31.5647 6.97C33.8549 8.91857 35 11.5586 35 14.89C35 18.5986 33.8863 21.3957 31.6588 23.2814C29.4314 25.1357 26.5451 26.0629 23 26.0629ZM19.2353 13.1457V17.5771H23C24.7255 17.5771 25.5882 16.8386 25.5882 15.3614C25.5882 13.8843 24.7255 13.1457 23 13.1457H19.2353Z" fill="white"/>
</svg>
